<svg width="244" height="280" viewBox="0 0 244 280" fill="none" xmlns="http://www.w3.org/2000/svg">
<path d="M38.0958 211.494C25.5924 200.263 15.9245 186.232 9.88254 170.549C3.84063 154.866 1.59625 137.975 3.3329 121.258C5.06956 104.541 10.7379 88.4729 19.8746 74.3665C29.0113 60.2601 41.3568 48.5164 55.9018 40.0954L77.3096 77.072C68.6 82.1146 61.2073 89.1469 55.7362 97.5939C50.2651 106.041 46.8708 115.663 45.8308 125.673C44.7909 135.683 46.1349 145.798 49.7528 155.189C53.3708 164.58 59.16 172.982 66.6472 179.707L38.0958 211.494Z" fill="#273981"/>
<path d="M78.3484 30.3484C94.4316 25.4698 111.441 24.4669 127.986 27.4216C144.531 30.3763 160.142 37.2048 173.542 47.3488C186.943 57.4928 197.752 70.6642 205.086 85.7862C212.421 100.908 216.072 117.551 215.742 134.355L173.024 133.516C173.222 123.453 171.035 113.487 166.643 104.432C162.251 95.3769 155.778 87.4897 147.754 81.4154C139.73 75.3411 130.382 71.2521 120.474 69.4828C110.567 67.7135 100.382 68.314 90.7509 71.2354L78.3484 30.3484Z" fill="#84B6F3"/>
<path d="M213.454 154.317C209.974 170.759 202.652 186.145 192.086 199.215C181.52 212.285 168.011 222.67 152.663 229.519C137.315 236.368 120.564 239.487 103.78 238.622C86.995 237.756 70.6536 232.931 56.0913 224.54L77.4232 187.519C86.1432 192.544 95.9286 195.433 105.979 195.952C116.03 196.47 126.061 194.602 135.251 190.501C144.442 186.399 152.531 180.181 158.858 172.355C165.185 164.528 169.57 155.315 171.654 145.469L213.454 154.317Z" fill="#46589F"/>
<g filter="url(#filter0_b)">
<path d="M223.454 163.522C219.974 179.964 212.652 195.35 202.086 208.42C191.52 221.491 178.011 231.875 162.663 238.724C147.315 245.573 130.564 248.692 113.78 247.827C96.995 246.961 80.6536 242.136 66.0913 233.745L87.4232 196.724C96.1432 201.749 105.929 204.639 115.979 205.157C126.03 205.675 136.061 203.807 145.251 199.706C154.442 195.604 162.531 189.386 168.858 181.56C175.185 173.733 179.57 164.52 181.654 154.674L223.454 163.522Z" fill="url(#paint0_linear)"/>
</g>
<path d="M133.313 107.6H120.447C120.482 106.845 120.489 106.157 120.477 105.576C120.473 105.364 120.402 105.158 120.274 104.988C120.147 104.818 119.969 104.692 119.767 104.627C115.162 103.17 111.71 101.779 110.063 101.081C109.937 101.028 109.802 101 109.665 101C109.528 101 109.393 101.028 109.267 101.081C107.621 101.779 104.171 103.169 99.5641 104.627C99.361 104.691 99.183 104.817 99.0553 104.987C98.9275 105.157 98.8564 105.363 98.8519 105.576C98.8397 106.157 98.8461 106.846 98.8804 107.6H86.0174C85.7476 107.601 85.4889 107.708 85.2982 107.899C85.1074 108.089 85.0002 108.348 85 108.618V155.913C85.0002 156.183 85.1074 156.442 85.2982 156.632C85.4889 156.823 85.7476 156.93 86.0174 156.931H87.0057V159.983C87.0058 160.252 87.1131 160.511 87.3038 160.702C87.4946 160.893 87.7533 161 88.023 161H95.801C96.0707 161 96.3294 160.893 96.5202 160.702C96.7109 160.511 96.8182 160.252 96.8183 159.983V156.928H122.513V159.98C122.513 160.25 122.62 160.509 122.811 160.7C123.002 160.89 123.261 160.998 123.53 160.998H131.31C131.58 160.998 131.839 160.89 132.029 160.7C132.22 160.509 132.327 160.25 132.327 159.98V156.928H133.316C133.586 156.928 133.844 156.821 134.035 156.63C134.226 156.439 134.333 156.181 134.333 155.911V108.618C134.333 108.484 134.307 108.351 134.255 108.228C134.204 108.104 134.129 107.992 134.034 107.897C133.939 107.803 133.827 107.728 133.703 107.677C133.579 107.626 133.447 107.6 133.313 107.6ZM127.343 128.318V136.213H124.075C123.907 136.212 123.746 136.145 123.628 136.026C123.51 135.907 123.443 135.746 123.443 135.579V128.951C123.443 128.783 123.51 128.622 123.629 128.503C123.748 128.384 123.909 128.317 124.077 128.317L127.343 128.318ZM126.402 126.283H124.077C123.37 126.285 122.692 126.567 122.191 127.067C121.691 127.567 121.41 128.245 121.408 128.952V135.58C121.41 136.287 121.691 136.965 122.192 137.465C122.692 137.966 123.37 138.247 124.077 138.249H126.403V149.004H92.9279V144.187C93.5489 143.996 94.0926 143.612 94.4796 143.09C94.8666 142.568 95.0766 141.937 95.0789 141.287V123.244C95.0766 122.594 94.8666 121.962 94.4796 121.441C94.0926 120.919 93.5489 120.534 92.9279 120.344V115.528H100.402C102.097 120.142 105.081 123.297 109.301 124.915C109.535 125.005 109.795 125.005 110.03 124.915C114.249 123.297 117.233 120.142 118.928 115.528H126.402V126.283ZM91.7954 122.227H92.028C92.2977 122.227 92.5563 122.334 92.747 122.525C92.9378 122.716 93.045 122.974 93.0454 123.244V141.287C93.045 141.557 92.9378 141.815 92.747 142.006C92.5563 142.197 92.2977 142.304 92.028 142.304H91.7954C91.5257 142.304 91.2671 142.197 91.0764 142.006C90.8857 141.815 90.7784 141.557 90.7781 141.287V123.244C90.7784 122.974 90.8857 122.716 91.0764 122.525C91.2671 122.334 91.5257 122.227 91.7954 122.227ZM109.665 103.121C111.37 103.833 114.448 105.051 118.447 106.342C118.439 108.501 118.176 110.652 117.662 112.75C116.381 117.789 113.692 121.192 109.665 122.87C105.638 121.191 102.949 117.789 101.668 112.75C101.154 110.652 100.891 108.501 100.883 106.342C104.885 105.049 107.961 103.833 109.665 103.121ZM87.0347 109.635H99.0449C99.1798 110.854 99.3973 112.062 99.696 113.251C99.717 113.334 99.7414 113.412 99.7635 113.494H91.9105C91.6408 113.494 91.3821 113.601 91.1913 113.792C91.0006 113.982 90.8933 114.241 90.8932 114.511V120.344C90.2722 120.535 89.7286 120.919 89.3416 121.441C88.9546 121.963 88.7446 122.594 88.7422 123.244V141.287C88.7446 141.937 88.9546 142.568 89.3416 143.09C89.7286 143.612 90.2722 143.996 90.8932 144.187V150.02C90.8933 150.29 91.0006 150.548 91.1913 150.739C91.3821 150.93 91.6408 151.037 91.9105 151.037H127.42C127.689 151.037 127.948 150.93 128.139 150.739C128.33 150.549 128.437 150.29 128.437 150.02V138.24C128.692 138.221 128.931 138.107 129.105 137.92C129.28 137.732 129.377 137.486 129.378 137.23V127.301C129.377 127.045 129.28 126.798 129.105 126.611C128.931 126.424 128.692 126.31 128.437 126.291V114.511C128.437 114.241 128.33 113.982 128.139 113.792C127.948 113.601 127.689 113.494 127.42 113.494H119.567C119.589 113.412 119.613 113.334 119.634 113.251C119.933 112.062 120.15 110.854 120.285 109.635H132.295V154.893H87.0347V109.635ZM94.7824 158.963H89.0381V156.928H94.7824V158.963ZM130.291 158.963H124.548V156.928H130.293L130.291 158.963Z" fill="#46589F"/>
<path d="M107.718 115.432C107.813 115.529 107.926 115.607 108.051 115.659C108.176 115.712 108.31 115.739 108.445 115.739C108.581 115.739 108.715 115.712 108.84 115.66C108.964 115.607 109.077 115.53 109.172 115.434L114.032 110.471C114.127 110.376 114.203 110.263 114.255 110.139C114.306 110.014 114.333 109.88 114.332 109.746C114.332 109.611 114.305 109.478 114.252 109.353C114.2 109.229 114.123 109.117 114.027 109.022C113.93 108.928 113.816 108.854 113.691 108.804C113.566 108.754 113.432 108.73 113.297 108.732C113.162 108.734 113.029 108.763 112.906 108.817C112.783 108.872 112.671 108.95 112.578 109.047L108.448 113.269L106.752 111.53C106.659 111.434 106.548 111.358 106.425 111.305C106.302 111.253 106.17 111.225 106.037 111.223C105.903 111.221 105.77 111.246 105.646 111.296C105.522 111.345 105.409 111.419 105.314 111.512C105.218 111.606 105.142 111.717 105.089 111.84C105.036 111.963 105.008 112.095 105.007 112.228C105.005 112.362 105.03 112.494 105.08 112.618C105.129 112.742 105.203 112.856 105.296 112.951L107.718 115.432Z" fill="#84B6F3"/>
<defs>
<filter id="filter0_b" x="0.393936" y="74.5549" width="295.716" height="260.219" filterUnits="userSpaceOnUse" color-interpolation-filters="sRGB">
<feFlood flood-opacity="0" result="BackgroundImageFix"/>
<feGaussianBlur in="BackgroundImage" stdDeviation="27.5"/>
<feComposite in2="SourceAlpha" operator="in" result="effect1_backgroundBlur"/>
<feBlend mode="normal" in="SourceGraphic" in2="effect1_backgroundBlur" result="shape"/>
</filter>
<linearGradient id="paint0_linear" x1="27.0123" y1="194.685" x2="211.513" y2="88.2506" gradientUnits="userSpaceOnUse">
<stop stop-color="white"/>
<stop offset="1" stop-color="white" stop-opacity="0"/>
</linearGradient>
</defs>
</svg>
