<svg width="31" height="30" viewBox="0 0 31 30" fill="none" xmlns="http://www.w3.org/2000/svg">
<g clip-path="url(#clip0)">
<path d="M15.3 30C11.2132 30 7.37101 28.4398 4.48123 25.6066C1.59144 22.7735 0 19.0066 0 15C0 10.9934 1.5915 7.22654 4.48123 4.39336C7.37095 1.56018 11.2132 0 15.3 0C19.3868 0 23.229 1.56023 26.1188 4.39336C29.0086 7.22648 30.6 10.9934 30.6 15C30.6 19.0066 29.0085 22.7735 26.1188 25.6066C23.229 28.4398 19.3868 30 15.3 30ZM15.3 1.875C7.91811 1.875 1.9125 7.76285 1.9125 15C1.9125 22.2371 7.91811 28.125 15.3 28.125C22.6819 28.125 28.6875 22.2371 28.6875 15C28.6875 7.76285 22.6819 1.875 15.3 1.875Z" fill="#273981"/>
<path d="M15.3002 14.0625C13.982 14.0625 12.9096 13.0111 12.9096 11.7188C12.9096 10.4264 13.982 9.375 15.3002 9.375C16.6184 9.375 17.6908 10.4264 17.6908 11.7188C17.6908 12.2365 18.1189 12.6562 18.6471 12.6562C19.1752 12.6562 19.6033 12.2365 19.6033 11.7188C19.6033 9.71479 18.1703 8.03391 16.2564 7.60629V6.5625C16.2564 6.04477 15.8283 5.625 15.3002 5.625C14.772 5.625 14.3439 6.04477 14.3439 6.5625V7.60629C12.4301 8.03391 10.9971 9.71479 10.9971 11.7188C10.9971 14.045 12.9274 15.9375 15.3002 15.9375C16.6184 15.9375 17.6908 16.9889 17.6908 18.2812C17.6908 19.5736 16.6184 20.625 15.3002 20.625C13.982 20.625 12.9096 19.5736 12.9096 18.2812C12.9096 17.7635 12.4815 17.3438 11.9533 17.3438C11.4252 17.3438 10.9971 17.7635 10.9971 18.2812C10.9971 20.2852 12.4301 21.9661 14.3439 22.3937V23.4375C14.3439 23.9552 14.772 24.375 15.3002 24.375C15.8283 24.375 16.2564 23.9552 16.2564 23.4375V22.3937C18.1703 21.9661 19.6033 20.2852 19.6033 18.2812C19.6033 15.955 17.673 14.0625 15.3002 14.0625Z" fill="#273981"/>
</g>
<defs>
<clipPath id="clip0">
<rect width="30.6" height="30" fill="white"/>
</clipPath>
</defs>
</svg>
