<svg width="47" height="60" viewBox="0 0 47 60" fill="none" xmlns="http://www.w3.org/2000/svg">
<path d="M30.7678 16.739C30.9314 16.5071 31.0613 16.2532 31.1531 15.9846C31.5647 16.0539 31.9573 16.2107 32.303 16.4446C32.9988 16.9148 33.8147 17.1755 34.6541 17.197C34.9192 17.196 35.1834 17.1716 35.4441 17.1247C36.5423 16.9372 37.5213 16.321 38.1648 15.4118C38.5096 14.8684 39.0672 14.4953 39.7005 14.3835C40.3343 14.2722 40.9857 14.4319 41.4949 14.8249C42.4115 15.4592 43.5418 15.7033 44.638 15.5036L44.2899 13.5339C43.6566 13.6457 43.0052 13.4856 42.4959 13.093C40.5858 11.7858 37.9813 12.2453 36.6331 14.1267C36.2884 14.6701 35.7308 15.0432 35.097 15.155C34.8084 15.2131 34.51 15.2058 34.2239 15.134C34.8157 14.9778 35.3631 14.6872 35.824 14.2849C36.6814 13.5734 37.221 12.55 37.324 11.4406C37.3509 10.7976 37.6473 10.196 38.1409 9.7829C38.6316 9.36493 39.2772 9.17742 39.9149 9.26678C41.0267 9.36786 42.1317 9.01238 42.9759 8.28289L41.6873 6.75163C41.1888 7.15446 40.5496 7.34001 39.9129 7.26677C37.6053 7.0905 35.5789 8.79021 35.3518 11.0939C35.3255 11.736 35.0296 12.3376 34.5374 12.7512C34.0447 13.1643 33.4011 13.3518 32.7639 13.2668C32.1399 13.2185 31.5125 13.302 30.9231 13.5129C30.6477 13.0354 30.2459 12.6428 29.762 12.3786L34.2332 3.44692C34.3885 3.13588 34.3714 2.76674 34.1878 2.47133C34.0042 2.1764 33.6804 1.99769 33.3333 1.99965C32.6287 2.00599 31.9524 1.72425 31.4612 1.21986C29.6956 -0.406619 26.9783 -0.406619 25.2131 1.21986C24.717 1.71986 24.0417 2.00062 23.3376 2.00062C22.633 2.00062 21.9582 1.71986 21.4621 1.21986C19.695 -0.405642 16.9772 -0.405642 15.2101 1.21986C14.7169 1.72474 14.0387 2.00648 13.3331 1.99965C12.9865 1.99965 12.6642 2.17885 12.4821 2.47377C12.2995 2.76821 12.2829 3.13686 12.4381 3.44692L16.904 12.3786C16.1471 12.7824 15.6017 13.4939 15.4088 14.3298C15.216 15.1657 15.3942 16.0442 15.8981 16.739C6.7291 19.2019 0.34967 27.5057 0.333069 36.9999V55C0.335999 57.7602 2.57283 59.9966 5.3331 60H41.3333C44.0931 59.9966 46.3299 57.7602 46.3334 55V36.9999C46.3163 27.5057 39.9368 19.2019 30.7678 16.739ZM16.4591 2.7809C16.9557 2.2809 17.631 1.99965 18.3361 1.99965C19.0407 1.99965 19.7165 2.2809 20.2131 2.7809C21.9792 4.40591 24.6965 4.40591 26.4631 2.7809C26.9587 2.2809 27.633 1.99965 28.3371 1.99965C29.0408 1.99965 29.7156 2.2809 30.2112 2.7809C30.6887 3.20229 31.2385 3.53481 31.8342 3.76186L27.7151 11.9997H18.9509L14.8332 3.76284C15.4294 3.5353 15.9801 3.20278 16.4591 2.7809ZM18.3332 15.9997C17.7804 15.9997 17.3332 15.552 17.3332 14.9997C17.3332 14.4475 17.7804 13.9997 18.3332 13.9997H28.3332C28.8855 13.9997 29.3332 14.4475 29.3332 14.9997C29.3332 15.552 28.8855 15.9997 28.3332 15.9997H18.3332ZM44.3333 55C44.3333 56.6567 42.9901 58 41.3333 58H5.3331C3.67586 58 2.33308 56.6567 2.33308 55V36.9999C2.34431 26.511 10.8444 18.0115 21.3332 17.9997H25.3332C35.8216 18.0115 44.3216 26.511 44.3333 36.9999V55Z" fill="#273981"/>
<path d="M16.6254 44.2923L28.6259 32.2922L30.04 33.7063L18.0399 45.7069L16.6254 44.2923Z" fill="#84B6F3"/>
<path d="M27.3331 39.9998C25.6758 39.9998 24.333 41.343 24.333 42.9998C24.333 44.6565 25.6758 45.9998 27.3331 45.9998C28.9898 45.9998 30.3331 44.6565 30.3331 42.9998C30.3331 41.343 28.9898 39.9998 27.3331 39.9998ZM27.3331 43.9998C26.7803 43.9998 26.3331 43.552 26.3331 42.9998C26.3331 42.4475 26.7803 41.9998 27.3331 41.9998C27.8853 41.9998 28.3331 42.4475 28.3331 42.9998C28.3331 43.552 27.8853 43.9998 27.3331 43.9998Z" fill="#84B6F3"/>
<path d="M19.3331 37.9998C20.9898 37.9998 22.3331 36.6565 22.3331 34.9998C22.3331 33.343 20.9898 31.9998 19.3331 31.9998C17.6759 31.9998 16.3331 33.343 16.3331 34.9998C16.3331 36.6565 17.6759 37.9998 19.3331 37.9998ZM19.3331 33.9998C19.8853 33.9998 20.3331 34.4475 20.3331 34.9998C20.3331 35.552 19.8853 35.9998 19.3331 35.9998C18.7804 35.9998 18.3331 35.552 18.3331 34.9998C18.3331 34.4475 18.7804 33.9998 19.3331 33.9998Z" fill="#84B6F3"/>
<path d="M23.333 24.9998C15.6005 24.9998 9.33292 31.2679 9.33292 38.9998C9.33292 46.7318 15.6005 52.9999 23.333 52.9999C31.065 52.9999 37.3331 46.7318 37.3331 38.9998C37.3248 31.2713 31.0616 25.0081 23.333 24.9998ZM23.333 50.9999C16.7055 50.9999 11.3329 45.6273 11.3329 38.9998C11.3329 32.3724 16.7055 26.9998 23.333 26.9998C29.96 26.9998 35.3331 32.3724 35.3331 38.9998C35.3258 45.6244 29.9571 50.9926 23.333 50.9999Z" fill="#273981"/>
</svg>
