<svg width="60" height="60" viewBox="0 0 60 60" fill="none" xmlns="http://www.w3.org/2000/svg">
<path d="M57 0H19C18.2051 0.00237409 17.4434 0.319207 16.8813 0.881302C16.3192 1.4434 16.0024 2.20508 16 3V9H1C0.734784 9 0.48043 9.10536 0.292893 9.29289C0.105357 9.48043 0 9.73478 0 10V50C0 50.2652 0.105357 50.5196 0.292893 50.7071C0.48043 50.8946 0.734784 51 1 51H16V57C16.0024 57.7949 16.3192 58.5566 16.8813 59.1187C17.4434 59.6808 18.2051 59.9976 19 60H57C57.7949 59.9976 58.5566 59.6808 59.1187 59.1187C59.6808 58.5566 59.9976 57.7949 60 57V3C59.9976 2.20508 59.6808 1.4434 59.1187 0.881302C58.5566 0.319207 57.7949 0.00237409 57 0ZM4 49H2V11H4V49ZM6 49V11H28V49H6ZM58 57C58 57.2652 57.8946 57.5196 57.7071 57.7071C57.5196 57.8946 57.2652 58 57 58H19C18.7348 58 18.4804 57.8946 18.2929 57.7071C18.1054 57.5196 18 57.2652 18 57V51H29C29.2652 51 29.5196 50.8946 29.7071 50.7071C29.8946 50.5196 30 50.2652 30 50V10C30 9.73478 29.8946 9.48043 29.7071 9.29289C29.5196 9.10536 29.2652 9 29 9H18V3C18 2.73478 18.1054 2.48043 18.2929 2.29289C18.4804 2.10536 18.7348 2 19 2H57C57.2652 2 57.5196 2.10536 57.7071 2.29289C57.8946 2.48043 58 2.73478 58 3V57Z" fill="#273981"/>
<path d="M36 9.99976H40V11.9998H36V9.99976Z" fill="#273981"/>
<path d="M42 9.99976H54V11.9998H42V9.99976Z" fill="#273981"/>
<path d="M36 15.9998H40V17.9998H36V15.9998Z" fill="#273981"/>
<path d="M42 15.9998H54V17.9998H42V15.9998Z" fill="#273981"/>
<path d="M36 21.9998H40V23.9998H36V21.9998Z" fill="#273981"/>
<path d="M42 21.9998H54V23.9998H42V21.9998Z" fill="#273981"/>
<path d="M17 24.9998C16.0111 24.9998 15.0444 25.293 14.2222 25.8424C13.3999 26.3918 12.759 27.1727 12.3806 28.0863C12.0022 29 11.9031 30.0053 12.0961 30.9752C12.289 31.9451 12.7652 32.836 13.4645 33.5353C14.1637 34.2346 15.0546 34.7108 16.0245 34.9037C16.9945 35.0966 17.9998 34.9976 18.9134 34.6192C19.827 34.2407 20.6079 33.5999 21.1573 32.7776C21.7068 31.9554 22 30.9887 22 29.9998C21.9984 28.6742 21.4711 27.4033 20.5338 26.466C19.5964 25.5286 18.3256 25.0013 17 24.9998ZM17 32.9998C16.4067 32.9998 15.8266 32.8238 15.3333 32.4942C14.8399 32.1645 14.4554 31.696 14.2284 31.1478C14.0013 30.5996 13.9419 29.9964 14.0576 29.4145C14.1734 28.8325 14.4591 28.298 14.8787 27.8784C15.2982 27.4589 15.8328 27.1732 16.4147 27.0574C16.9967 26.9416 17.5999 27.0011 18.1481 27.2281C18.6962 27.4552 19.1648 27.8397 19.4944 28.333C19.8241 28.8264 20 29.4064 20 29.9998C20 30.7954 19.6839 31.5585 19.1213 32.1211C18.5587 32.6837 17.7957 32.9998 17 32.9998Z" fill="#84B6F3"/>
<path d="M25.0001 16.9998C24.2052 16.9974 23.4435 16.6805 22.8814 16.1185C22.3193 15.5564 22.0025 14.7947 22.0001 13.9998C22.0001 13.7345 21.8948 13.4802 21.7072 13.2926C21.5197 13.1051 21.2654 12.9998 21.0001 12.9998H13.0001C12.7349 12.9998 12.4806 13.1051 12.293 13.2926C12.1055 13.4802 12.0001 13.7345 12.0001 13.9998C11.9978 14.7947 11.6809 15.5564 11.1188 16.1185C10.5567 16.6805 9.79506 16.9974 9.00014 16.9998C8.73492 16.9998 8.48057 17.1051 8.29303 17.2926C8.10549 17.4802 8.00014 17.7345 8.00014 17.9998V41.9998C8.00014 42.265 8.10549 42.5193 8.29303 42.7069C8.48057 42.8944 8.73492 42.9998 9.00014 42.9998C9.79506 43.0021 10.5567 43.319 11.1188 43.8811C11.6809 44.4432 11.9978 45.2048 12.0001 45.9998C12.0001 46.265 12.1055 46.5193 12.293 46.7069C12.4806 46.8944 12.7349 46.9998 13.0001 46.9998H21.0001C21.2654 46.9998 21.5197 46.8944 21.7072 46.7069C21.8948 46.5193 22.0001 46.265 22.0001 45.9998C22.0025 45.2048 22.3193 44.4432 22.8814 43.8811C23.4435 43.319 24.2052 43.0021 25.0001 42.9998C25.2654 42.9998 25.5197 42.8944 25.7072 42.7069C25.8948 42.5193 26.0001 42.265 26.0001 41.9998V17.9998C26.0001 17.7345 25.8948 17.4802 25.7072 17.2926C25.5197 17.1051 25.2654 16.9998 25.0001 16.9998ZM24.0001 41.0998C23.0398 41.2969 22.1584 41.7715 21.4652 42.4648C20.7719 43.158 20.2973 44.0394 20.1001 44.9998H13.9001C13.703 44.0394 13.2284 43.158 12.5351 42.4648C11.8419 41.7715 10.9605 41.2969 10.0001 41.0998V18.8998C10.9605 18.7026 11.8419 18.228 12.5351 17.5347C13.2284 16.8415 13.703 15.9601 13.9001 14.9998H20.1001C20.2973 15.9601 20.7719 16.8415 21.4652 17.5347C22.1584 18.228 23.0398 18.7026 24.0001 18.8998V41.0998Z" fill="#273981"/>
<path d="M55.3402 30.0603L44.3402 26.0603C44.1205 25.9802 43.8798 25.9802 43.6602 26.0603L32.6602 30.0603C32.4662 30.1291 32.2985 30.2566 32.1803 30.425C32.062 30.5935 31.9991 30.7945 32.0002 31.0003V39.6903C32.0013 41.501 32.3799 43.2917 33.1116 44.948C33.8434 46.6044 34.9123 48.09 36.2502 49.3103L43.3302 55.7403C43.5132 55.9076 43.7522 56.0004 44.0002 56.0004C44.2481 56.0004 44.4871 55.9076 44.6702 55.7403L51.7502 49.3103C53.088 48.09 54.1569 46.6044 54.8887 44.948C55.6204 43.2917 55.999 41.501 56.0002 39.6903V31.0003C56.0012 30.7945 55.9383 30.5935 55.82 30.425C55.7018 30.2566 55.5341 30.1291 55.3402 30.0603ZM54.0002 39.6903C53.9991 41.2228 53.6784 42.7383 53.0585 44.1399C52.4386 45.5415 51.5332 46.7984 50.4002 47.8303L44.0002 53.6503L37.6002 47.8303C36.4671 46.7984 35.5617 45.5415 34.9418 44.1399C34.3219 42.7383 34.0012 41.2228 34.0002 39.6903V31.7003L44.0002 28.0603L54.0002 31.7003V39.6903Z" fill="#273981"/>
<path d="M39.7071 39.293L38.2931 40.707L42.2931 44.707C42.4806 44.8944 42.7349 44.9998 43.0001 44.9998C43.2653 44.9998 43.5196 44.8944 43.7071 44.707L50.7071 37.707L49.2931 36.293L43.0001 42.586L39.7071 39.293Z" fill="#84B6F3"/>
</svg>
