<svg width="50" height="60" viewBox="0 0 50 60" fill="none" xmlns="http://www.w3.org/2000/svg">
<path d="M48.3128 6.60038H35.4474C35.4823 5.84462 35.4887 5.15746 35.4771 4.5761C35.4726 4.36359 35.4016 4.15782 35.2742 3.98766C35.1468 3.81751 34.9693 3.69151 34.7667 3.62734C30.1618 2.17046 26.7103 0.778705 25.0627 0.0810814C24.937 0.0275777 24.8017 0 24.6651 0C24.5284 0 24.3932 0.0275777 24.2674 0.0810814C22.621 0.778705 19.1713 2.1693 14.5641 3.62734C14.361 3.69105 14.183 3.81688 14.0553 3.9871C13.9275 4.15731 13.8564 4.36332 13.8519 4.5761C13.8397 5.15746 13.8461 5.84636 13.8804 6.60038H1.01737C0.747593 6.60053 0.488911 6.70777 0.29815 6.89853C0.10739 7.08929 0.000154026 7.34797 0 7.61775V54.9132C0.000154026 55.1829 0.10739 55.4416 0.29815 55.6324C0.488911 55.8231 0.747593 55.9304 1.01737 55.9305H2.00567V58.9826C2.00582 59.2524 2.11306 59.5111 2.30382 59.7019C2.49458 59.8926 2.75326 59.9998 3.02304 60H10.801C11.0707 59.9998 11.3294 59.8926 11.5202 59.7019C11.7109 59.5111 11.8182 59.2524 11.8183 58.9826V55.9282H37.513V58.9803C37.513 59.2501 37.6202 59.5089 37.811 59.6997C38.0018 59.8905 38.2605 59.9977 38.5304 59.9977H46.31C46.5799 59.9977 46.8386 59.8905 47.0294 59.6997C47.2202 59.5089 47.3274 59.2501 47.3274 58.9803V55.9282H48.3157C48.5855 55.9282 48.8443 55.821 49.0351 55.6302C49.2259 55.4394 49.3331 55.1807 49.3331 54.9108V7.61775C49.3331 7.4839 49.3067 7.35137 49.2554 7.22774C49.204 7.10412 49.1288 6.99184 49.0341 6.89733C48.9393 6.80282 48.8268 6.72794 48.703 6.67698C48.5793 6.62603 48.4467 6.59999 48.3128 6.60038ZM42.3429 27.3181V35.2128H39.0745C38.9069 35.2119 38.7464 35.1447 38.6281 35.0259C38.5098 34.907 38.4433 34.7463 38.4432 34.5786V27.9512C38.4433 27.783 38.5102 27.6218 38.6291 27.5028C38.748 27.3839 38.9093 27.3171 39.0774 27.3169L42.3429 27.3181ZM41.4023 25.2833H39.0768C38.3695 25.2849 37.6916 25.5666 37.1915 26.0668C36.6914 26.567 36.4098 27.245 36.4084 27.9523V34.5798C36.4098 35.2872 36.6915 35.9653 37.1917 36.4655C37.6919 36.9657 38.37 37.2474 39.0774 37.2487H41.4028V48.0038H7.92792V43.1873C8.54891 42.9964 9.09261 42.612 9.4796 42.0902C9.86658 41.5684 10.0766 40.9365 10.0789 40.2869V22.244C10.0766 21.5944 9.86658 20.9625 9.4796 20.4407C9.09261 19.9189 8.54891 19.5345 7.92792 19.3436V14.5283H15.4018C17.097 19.1419 20.0811 22.2969 24.3006 23.9154C24.5353 24.0053 24.7949 24.0053 25.0296 23.9154C29.2491 22.2969 32.2326 19.1425 33.9284 14.5283H41.4023V25.2833ZM6.79544 21.2266H7.02798C7.29771 21.227 7.5563 21.3342 7.74703 21.525C7.93776 21.7157 8.04504 21.9743 8.04535 22.244V40.2869C8.04504 40.5566 7.93776 40.8152 7.74703 41.0059C7.5563 41.1967 7.29771 41.304 7.02798 41.3043H6.79544C6.52571 41.304 6.26712 41.1967 6.07639 41.0059C5.88566 40.8152 5.77838 40.5566 5.77807 40.2869V22.244C5.77838 21.9743 5.88566 21.7157 6.07639 21.525C6.26712 21.3342 6.52571 21.227 6.79544 21.2266ZM24.6651 2.12105C26.3702 2.83321 29.4485 4.05056 33.447 5.34175C33.4394 7.50133 33.1759 9.6524 32.6622 11.75C31.3815 16.7892 28.6921 20.1918 24.6651 21.8702C20.6381 20.1913 17.9487 16.7892 16.668 11.75C16.1545 9.65236 15.891 7.50131 15.8832 5.34175C19.8846 4.0494 22.9611 2.83321 24.6651 2.12105ZM2.03474 8.63511H14.0449C14.1798 9.85381 14.3973 11.0619 14.696 12.2511C14.717 12.3337 14.7414 12.4122 14.7635 12.4936H6.91055C6.64077 12.4937 6.38209 12.6009 6.19133 12.7917C6.00057 12.9825 5.89333 13.2411 5.89318 13.5109V19.3436C5.27224 19.5346 4.72859 19.919 4.34162 20.4408C3.95464 20.9626 3.7446 21.5944 3.74217 22.244V40.2869C3.7446 40.9365 3.95464 41.5684 4.34162 42.0901C4.72859 42.6119 5.27224 42.9963 5.89318 43.1873V49.02C5.89333 49.2898 6.00057 49.5484 6.19133 49.7392C6.38209 49.93 6.64077 50.0372 6.91055 50.0374H42.4196C42.6894 50.0374 42.9482 49.9302 43.139 49.7394C43.3298 49.5486 43.437 49.2898 43.437 49.02V37.24C43.6922 37.2214 43.931 37.107 44.1055 36.9197C44.2799 36.7324 44.3771 36.4861 44.3776 36.2302V26.3007C44.3771 26.0448 44.2799 25.7985 44.1055 25.6112C43.931 25.4239 43.6922 25.3095 43.437 25.2909V13.5109C43.437 13.2411 43.3298 12.9823 43.139 12.7915C42.9482 12.6007 42.6894 12.4936 42.4196 12.4936H34.5667C34.5888 12.4122 34.6132 12.3337 34.6341 12.2511C34.9328 11.0619 35.1503 9.8538 35.2853 8.63511H47.2954V53.8935H2.03474V8.63511ZM9.78244 57.9629H4.03808V55.9282H9.78244V57.9629ZM45.2909 57.9629H39.5477V55.9282H45.2927L45.2909 57.9629Z" fill="#273981"/>
<path d="M22.718 14.4324C22.8126 14.5295 22.9257 14.6067 23.0506 14.6594C23.1755 14.7121 23.3097 14.7393 23.4453 14.7393C23.5807 14.7394 23.7148 14.7124 23.8396 14.6599C23.9644 14.6074 24.0774 14.5304 24.172 14.4335L29.0315 9.4711C29.1272 9.37613 29.2031 9.2631 29.2547 9.13857C29.3063 9.01404 29.3326 8.88049 29.3322 8.74569C29.3317 8.61089 29.3045 8.47753 29.2521 8.35334C29.1996 8.22915 29.123 8.11663 29.0267 8.02229C28.9305 7.92796 28.8164 7.85371 28.6911 7.80385C28.5659 7.75399 28.432 7.72951 28.2972 7.73184C28.1624 7.73417 28.0295 7.76327 27.906 7.81743C27.7826 7.8716 27.6711 7.94975 27.5782 8.04736L23.4476 12.2686L21.7524 10.5297C21.6591 10.4341 21.5478 10.3578 21.425 10.3052C21.3022 10.2526 21.1702 10.2246 21.0366 10.223C20.903 10.2214 20.7704 10.2461 20.6463 10.2958C20.5223 10.3454 20.4092 10.419 20.3136 10.5123C20.2179 10.6056 20.1416 10.7169 20.089 10.8397C20.0364 10.9625 20.0085 11.0945 20.0068 11.2281C20.0052 11.3617 20.0299 11.4943 20.0796 11.6184C20.1292 11.7425 20.2028 11.8555 20.2961 11.9511L22.718 14.4324Z" fill="#84B6F3"/>
</svg>
