<svg width="41" height="60" viewBox="0 0 41 60" fill="none" xmlns="http://www.w3.org/2000/svg">
<path d="M30.7826 21.3669H10.3928C10.2768 21.3669 10.1619 21.3897 10.0547 21.434C9.94753 21.4784 9.85014 21.5435 9.76811 21.6255C9.68608 21.7075 9.62103 21.8049 9.57666 21.9121C9.5323 22.0193 9.5095 22.1342 9.50957 22.2502V36.0834C9.50963 36.1994 9.53253 36.3141 9.57695 36.4212C9.62138 36.5283 9.68645 36.6255 9.76847 36.7075C9.85048 36.7894 9.94783 36.8544 10.055 36.8987C10.1621 36.943 10.2769 36.9657 10.3928 36.9657H30.7826C30.8986 36.9657 31.0135 36.9429 31.1207 36.8986C31.2279 36.8542 31.3253 36.7891 31.4073 36.7071C31.4893 36.6251 31.5544 36.5277 31.5987 36.4205C31.6431 36.3133 31.6659 36.1984 31.6658 36.0824V22.2502C31.6659 22.1342 31.6431 22.0193 31.5987 21.9121C31.5544 21.8049 31.4893 21.7075 31.4073 21.6255C31.3253 21.5435 31.2279 21.4784 31.1207 21.434C31.0135 21.3897 30.8986 21.3669 30.7826 21.3669ZM29.8984 35.1992H11.275V23.1334H29.8984V35.1992Z" fill="#84B6F3"/>
<path d="M14.7085 41.1394H10.3928C10.1585 41.1394 9.93389 41.2325 9.76826 41.3981C9.60262 41.5637 9.50957 41.7884 9.50957 42.0226C9.50957 42.2569 9.60262 42.4815 9.76826 42.6472C9.93389 42.8128 10.1585 42.9058 10.3928 42.9058H14.7075C14.9417 42.9058 15.1663 42.8128 15.332 42.6472C15.4976 42.4815 15.5907 42.2569 15.5907 42.0226C15.5907 41.7884 15.4976 41.5637 15.332 41.3981C15.1663 41.2325 14.9417 41.1394 14.7075 41.1394H14.7085Z" fill="#273981"/>
<path d="M22.7447 41.1394H18.4306C18.1964 41.1394 17.9717 41.2325 17.8061 41.3981C17.6404 41.5637 17.5474 41.7884 17.5474 42.0226C17.5474 42.2569 17.6404 42.4815 17.8061 42.6472C17.9717 42.8128 18.1964 42.9058 18.4306 42.9058H22.7447C22.979 42.9058 23.2036 42.8128 23.3693 42.6472C23.5349 42.4815 23.628 42.2569 23.628 42.0226C23.628 41.7884 23.5349 41.5637 23.3693 41.3981C23.2036 41.2325 22.979 41.1394 22.7447 41.1394Z" fill="#273981"/>
<path d="M30.7828 41.1394H26.4672C26.2329 41.1394 26.0083 41.2325 25.8426 41.3981C25.677 41.5637 25.5839 41.7884 25.5839 42.0226C25.5839 42.2569 25.677 42.4815 25.8426 42.6472C26.0083 42.8128 26.2329 42.9058 26.4672 42.9058H30.7828C31.0171 42.9058 31.2417 42.8128 31.4074 42.6472C31.573 42.4815 31.666 42.2569 31.666 42.0226C31.666 41.7884 31.573 41.5637 31.4074 41.3981C31.2417 41.2325 31.0171 41.1394 30.7828 41.1394Z" fill="#273981"/>
<path d="M14.7085 46.7849H10.3928C10.1585 46.7849 9.93389 46.878 9.76826 47.0436C9.60262 47.2092 9.50957 47.4339 9.50957 47.6681C9.50957 47.9024 9.60262 48.127 9.76826 48.2927C9.93389 48.4583 10.1585 48.5514 10.3928 48.5514H14.7075C14.9417 48.5514 15.1663 48.4583 15.332 48.2927C15.4976 48.127 15.5907 47.9024 15.5907 47.6681C15.5907 47.4339 15.4976 47.2092 15.332 47.0436C15.1663 46.878 14.9417 46.7849 14.7075 46.7849H14.7085Z" fill="#273981"/>
<path d="M22.7447 46.7849H18.4306C18.1964 46.7849 17.9717 46.878 17.8061 47.0436C17.6404 47.2092 17.5474 47.4339 17.5474 47.6681C17.5474 47.9024 17.6404 48.127 17.8061 48.2927C17.9717 48.4583 18.1964 48.5514 18.4306 48.5514H22.7447C22.979 48.5514 23.2036 48.4583 23.3693 48.2927C23.5349 48.127 23.628 47.9024 23.628 47.6681C23.628 47.4339 23.5349 47.2092 23.3693 47.0436C23.2036 46.878 22.979 46.7849 22.7447 46.7849Z" fill="#273981"/>
<path d="M30.7828 46.7849H26.4672C26.2329 46.7849 26.0083 46.878 25.8426 47.0436C25.677 47.2092 25.5839 47.4339 25.5839 47.6681C25.5839 47.9024 25.677 48.127 25.8426 48.2927C26.0083 48.4583 26.2329 48.5514 26.4672 48.5514H30.7828C31.0171 48.5514 31.2417 48.4583 31.4074 48.2927C31.573 48.127 31.666 47.9024 31.666 47.6681C31.666 47.4339 31.573 47.2092 31.4074 47.0436C31.2417 46.878 31.0171 46.7849 30.7828 46.7849Z" fill="#273981"/>
<path d="M14.7085 52.4292H10.3928C10.1585 52.4292 9.93389 52.5223 9.76826 52.6879C9.60262 52.8535 9.50957 53.0782 9.50957 53.3124C9.50957 53.5467 9.60262 53.7713 9.76826 53.937C9.93389 54.1026 10.1585 54.1956 10.3928 54.1956H14.7075C14.9417 54.1956 15.1663 54.1026 15.332 53.937C15.4976 53.7713 15.5907 53.5467 15.5907 53.3124C15.5907 53.0782 15.4976 52.8535 15.332 52.6879C15.1663 52.5223 14.9417 52.4292 14.7075 52.4292H14.7085Z" fill="#273981"/>
<path d="M22.7447 52.4292H18.4306C18.1964 52.4292 17.9717 52.5223 17.8061 52.6879C17.6404 52.8535 17.5474 53.0782 17.5474 53.3124C17.5474 53.5467 17.6404 53.7713 17.8061 53.937C17.9717 54.1026 18.1964 54.1956 18.4306 54.1956H22.7447C22.979 54.1956 23.2036 54.1026 23.3693 53.937C23.5349 53.7713 23.628 53.5467 23.628 53.3124C23.628 53.0782 23.5349 52.8535 23.3693 52.6879C23.2036 52.5223 22.979 52.4292 22.7447 52.4292Z" fill="#273981"/>
<path d="M30.7828 52.4292H26.4672C26.2329 52.4292 26.0083 52.5223 25.8426 52.6879C25.677 52.8535 25.5839 53.0782 25.5839 53.3124C25.5839 53.5467 25.677 53.7713 25.8426 53.937C26.0083 54.1026 26.2329 54.1956 26.4672 54.1956H30.7828C31.0171 54.1956 31.2417 54.1026 31.4074 53.937C31.573 53.7713 31.666 53.5467 31.666 53.3124C31.666 53.0782 31.573 52.8535 31.4074 52.6879C31.2417 52.5223 31.0171 52.4292 30.7828 52.4292Z" fill="#273981"/>
<path d="M40.4336 24.1675L36.6651 21.7656V16.1301C36.6639 14.9604 36.1987 13.839 35.3716 13.0118C34.5446 12.1847 33.4232 11.7194 32.2535 11.7181H31.3849V0.883221C31.3849 0.648976 31.2919 0.424325 31.1262 0.258689C30.9606 0.0930532 30.7359 0 30.5017 0H10.6741C10.4399 0 10.2152 0.0930532 10.0496 0.258689C9.88396 0.424325 9.79091 0.648976 9.79091 0.883221V11.7181H8.92232C7.75263 11.7194 6.63123 12.1847 5.80417 13.0118C4.97712 13.839 4.51196 14.9604 4.51076 16.1301V21.7656L0.742179 24.1675C0.616898 24.2472 0.513761 24.3573 0.442305 24.4875C0.370849 24.6177 0.333383 24.7639 0.333374 24.9124V39.3609C0.333328 39.5093 0.370775 39.6554 0.442239 39.7856C0.513704 39.9157 0.616873 40.0257 0.742179 40.1053L4.51076 42.5072V55.5889C4.51209 56.7585 4.97733 57.8798 5.80438 58.7067C6.63144 59.5337 7.75276 59.9988 8.92232 60H32.2535C33.4231 59.9988 34.5444 59.5337 35.3714 58.7067C36.1985 57.8798 36.6637 56.7585 36.6651 55.5889V42.5072L40.4336 40.1053C40.5589 40.0257 40.6621 39.9157 40.7336 39.7856C40.805 39.6554 40.8425 39.5093 40.8424 39.3609V24.9124C40.8424 24.7639 40.805 24.6177 40.7335 24.4875C40.6621 24.3573 40.5589 24.2472 40.4336 24.1675ZM11.5573 1.76644H29.6185V16.3739H11.5573V1.76644ZM2.09982 38.8764V25.3969L4.51076 23.8601V40.4142L2.09982 38.8764ZM34.8986 55.5889C34.8978 56.2902 34.6189 56.9625 34.123 57.4583C33.6271 57.9541 32.9547 58.2329 32.2535 58.2336H8.92232C8.22109 58.2329 7.54875 57.9541 7.05286 57.4583C6.55696 56.9625 6.278 56.2902 6.2772 55.5889V16.1301C6.278 15.4288 6.55693 14.7564 7.05279 14.2605C7.54866 13.7645 8.22099 13.4855 8.92232 13.4845H9.79091V16.3739H8.88548C8.65123 16.3739 8.42658 16.467 8.26095 16.6326C8.09531 16.7982 8.00226 17.0229 8.00226 17.2571C8.00226 17.4914 8.09531 17.716 8.26095 17.8817C8.42658 18.0473 8.65123 18.1404 8.88548 18.1404H32.2903C32.5246 18.1404 32.7492 18.0473 32.9149 17.8817C33.0805 17.716 33.1736 17.4914 33.1736 17.2571C33.1736 17.0229 33.0805 16.7982 32.9149 16.6326C32.7492 16.467 32.5246 16.3739 32.2903 16.3739H31.3849V13.4845H32.2535C32.9548 13.4855 33.6272 13.7645 34.123 14.2605C34.6189 14.7564 34.8978 15.4288 34.8986 16.1301V55.5889ZM39.076 38.8749L36.6651 40.4127V23.8586L39.076 25.3954V38.8749Z" fill="#273981"/>
</svg>
