<svg width="60" height="60" viewBox="0 0 60 60" fill="none" xmlns="http://www.w3.org/2000/svg">
<path d="M18.9026 24C20.0072 24 20.9026 23.1046 20.9026 22V20C20.9026 18.8954 20.0072 18 18.9026 18H6.90262C5.79805 18 4.90262 18.8954 4.90262 20V22C4.90262 23.1046 5.79805 24 6.90262 24H18.9026ZM6.90262 20H18.9026V22H6.90262V20Z" fill="#273981"/>
<path d="M8.90248 25.9998C7.24563 25.9998 5.90248 27.3429 5.90248 28.9998C5.90248 30.6566 7.24563 31.9998 8.90248 31.9998C10.5593 31.9998 11.9025 30.6566 11.9025 28.9998C11.9025 27.3429 10.5593 25.9998 8.90248 25.9998ZM8.90248 29.9998C8.3502 29.9998 7.90248 29.552 7.90248 28.9998C7.90248 28.4475 8.3502 27.9998 8.90248 27.9998C9.45477 27.9998 9.90248 28.4475 9.90248 28.9998C9.90248 29.552 9.45477 29.9998 8.90248 29.9998Z" fill="#273981"/>
<path d="M8.90248 33C7.24563 33 5.90248 34.3431 5.90248 36C5.90248 37.6568 7.24563 39 8.90248 39C10.5593 39 11.9025 37.6568 11.9025 36C11.9025 34.3431 10.5593 33 8.90248 33ZM8.90248 37C8.3502 37 7.90248 36.5523 7.90248 36C7.90248 35.4477 8.3502 35 8.90248 35C9.45477 35 9.90248 35.4477 9.90248 36C9.90248 36.5523 9.45477 37 8.90248 37Z" fill="#273981"/>
<path d="M8.90248 39.9998C7.24563 39.9998 5.90248 41.3429 5.90248 42.9998C5.90248 44.6566 7.24563 45.9997 8.90248 45.9997C10.5593 45.9997 11.9025 44.6566 11.9025 42.9998C11.9025 41.3429 10.5593 39.9998 8.90248 39.9998ZM8.90248 43.9997C8.3502 43.9997 7.90248 43.552 7.90248 42.9998C7.90248 42.4475 8.3502 41.9998 8.90248 41.9998C9.45477 41.9998 9.90248 42.4475 9.90248 42.9998C9.90248 43.552 9.45477 43.9997 8.90248 43.9997Z" fill="#273981"/>
<path d="M16.9022 25.9998C15.2454 25.9998 13.9022 27.3429 13.9022 28.9998C13.9022 30.6566 15.2454 31.9998 16.9022 31.9998C18.5591 31.9998 19.9022 30.6566 19.9022 28.9998C19.9022 27.3429 18.5591 25.9998 16.9022 25.9998ZM16.9022 29.9998C16.3499 29.9998 15.9022 29.552 15.9022 28.9998C15.9022 28.4475 16.3499 27.9998 16.9022 27.9998C17.4545 27.9998 17.9022 28.4475 17.9022 28.9998C17.9022 29.552 17.4545 29.9998 16.9022 29.9998Z" fill="#273981"/>
<path d="M16.9022 33C15.2454 33 13.9022 34.3431 13.9022 36C13.9022 37.6568 15.2454 39 16.9022 39C18.5591 39 19.9022 37.6568 19.9022 36C19.9022 34.3431 18.5591 33 16.9022 33ZM16.9022 37C16.3499 37 15.9022 36.5523 15.9022 36C15.9022 35.4477 16.3499 35 16.9022 35C17.4545 35 17.9022 35.4477 17.9022 36C17.9022 36.5523 17.4545 37 16.9022 37Z" fill="#273981"/>
<path d="M16.9022 39.9998C15.2454 39.9998 13.9022 41.3429 13.9022 42.9998C13.9022 44.6566 15.2454 45.9997 16.9022 45.9997C18.5591 45.9997 19.9022 44.6566 19.9022 42.9998C19.9022 41.3429 18.5591 39.9998 16.9022 39.9998ZM16.9022 43.9997C16.3499 43.9997 15.9022 43.552 15.9022 42.9998C15.9022 42.4475 16.3499 41.9998 16.9022 41.9998C17.4545 41.9998 17.9022 42.4475 17.9022 42.9998C17.9022 43.552 17.4545 43.9997 16.9022 43.9997Z" fill="#273981"/>
<path fill-rule="evenodd" clip-rule="evenodd" d="M49.4888 39.4424C49.4889 36.1904 47.7042 34.3525 45.0713 33.9379C44.2872 33.8144 43.5923 33.8364 42.9305 33.8574C42.6849 33.8652 42.4438 33.8728 42.2044 33.8728H41.3916C40.8393 33.8728 40.3916 34.3205 40.3916 34.8728V47.8044H38.9334C38.4578 47.8044 38.0722 48.1899 38.0722 48.6655C38.0722 49.1411 38.4578 49.5267 38.9334 49.5267H40.3916V52.2491C40.3916 52.8014 40.8393 53.2491 41.3916 53.2491H41.4478C41.997 53.2491 42.4434 52.8063 42.4478 52.2572L42.4699 49.5267H46.7391C47.2147 49.5267 47.6002 49.1411 47.6002 48.6655C47.6002 48.1899 47.2147 47.8044 46.7391 47.8044H42.4838L42.5035 45.3792C45.5495 45.3792 49.4887 42.6602 49.4888 39.4424ZM43.754 35.6108C43.7155 35.6136 43.677 35.6164 43.6378 35.6164C43.5714 35.6164 42.5049 35.6108 42.4398 35.6017L42.5035 43.5137C44.2231 43.5144 47.7042 42.2344 47.7042 39.4424C47.7042 36.1987 45.4688 35.7445 43.754 35.6108L43.754 35.6108Z" fill="#84B6F3"/>
<path d="M37.8224 29.178V21L51.2934 27.024C54.3185 28.3771 57.8678 27.0216 59.2209 23.9965C60.574 20.9714 59.2185 17.4221 56.1934 16.069L37.8224 7.853V7C37.8257 4.23995 40.0623 2.00331 42.8224 2C43.3747 2 43.8224 1.55228 43.8224 1C43.8224 0.447715 43.3747 0 42.8224 0H18.9024C15.0382 0.00440864 11.9068 3.13583 11.9024 7V14H3.90237C2.24551 14 0.902368 15.3431 0.902368 17V47C0.902368 48.6569 2.24551 50 3.90237 50H11.9024V52H2.00237C1.41066 51.9969 0.848206 52.2571 0.467386 52.71C0.0865661 53.1628 -0.0732005 53.7616 0.0313682 54.344C0.678538 57.6274 3.55578 59.9959 6.90237 60H30.8224C32.7197 59.996 34.5336 59.2198 35.8464 57.85C42.328 61.5856 50.5334 60.3278 55.5984 54.8223C60.6635 49.3167 61.2342 41.0351 56.9723 34.8868C52.7104 28.7384 44.7552 26.3669 37.8224 29.178ZM29.8864 13.655L31.9574 9.043L34.1504 9.018L31.3394 15.3L29.8864 13.655ZM25.8314 9.055H29.7614L28.4344 12.011L25.8314 9.055ZM34.1644 13.89C40.1224 16.554 39.7504 16.426 40.0494 16.426C40.5215 16.4265 40.9296 16.0967 41.0283 15.6351C41.127 15.1734 40.8894 14.7056 40.4584 14.513L34.9814 12.06L36.2064 9.321L49.8984 15.445L48.6744 18.183L44.1094 16.142C43.7832 15.9962 43.404 16.0356 43.1147 16.2452C42.8254 16.4548 42.6698 16.8028 42.7067 17.1582C42.7435 17.5135 42.9672 17.8222 43.2934 17.968L47.8574 20.009L46.6324 22.748L32.9404 16.624L34.1644 13.89ZM53.5494 17.082L50.2844 24.382L48.4584 23.566L51.7244 16.266L53.5494 17.082ZM57.4844 20.115C58.0551 21.6271 57.6625 23.334 56.4885 24.4448C55.3146 25.5556 53.5886 25.8533 52.1104 25.2L55.3764 17.9C56.3439 18.3291 57.1019 19.1241 57.4844 20.111V20.115ZM2.90237 47V17C2.90237 16.4477 3.35008 16 3.90237 16H21.9024C22.4547 16 22.9024 16.4477 22.9024 17V47C22.9024 47.5523 22.4547 48 21.9024 48H3.90237C3.35008 48 2.90237 47.5523 2.90237 47ZM2.00237 54.006H23.9024C24.1224 55.5253 24.8381 56.9294 25.9384 58L6.90237 58C4.52682 58.0052 2.47738 56.334 2.00437 54.006H2.00237ZM25.8804 53.728C25.7475 52.7376 24.9017 51.9986 23.9024 52H13.9024V50H21.9024C23.5592 50 24.9024 48.6569 24.9024 47V17C24.9024 15.3431 23.5592 14 21.9024 14H13.9024V7C13.9057 4.23995 16.1423 2.00331 18.9024 2H37.9224C36.5717 3.32089 35.814 5.13281 35.8224 7.022C35.7844 7.01271 35.7461 7.00537 35.7074 7L35.6894 7.021H23.6224C23.2286 7.03217 22.8761 7.26825 22.7159 7.62814C22.5557 7.98803 22.6161 8.40791 22.8714 8.708C32.1294 19.208 30.8364 17.768 31.2144 18.038L35.8224 20.105V30.165C31.185 32.8345 28.1943 37.6506 27.8578 42.9908C27.5213 48.3311 29.8838 53.4845 34.1494 56.715C32.7813 57.9403 30.8508 58.3152 29.1236 57.6911C27.3963 57.067 26.1513 55.5448 25.8824 53.728H25.8804ZM43.8224 58C38.1599 58 33.055 54.589 30.8881 49.3576C28.7211 44.1261 29.9189 38.1045 33.9229 34.1005C37.9268 30.0965 43.9485 28.8988 49.1799 31.0657C54.4114 33.2326 57.8224 38.3375 57.8224 44C57.8141 51.7286 51.5509 57.9917 43.8224 58Z" fill="#273981"/>
<path d="M34.8344 37.5111C34.3572 37.2334 33.7453 37.395 33.4674 37.8721C31.4785 41.3085 31.2805 45.4963 32.9364 49.1051C33.0774 49.4424 33.3912 49.6759 33.7549 49.714C34.1185 49.7521 34.474 49.5886 34.6818 49.2878C34.8896 48.987 34.9167 48.5967 34.7524 48.2701C33.3702 45.2523 33.5357 41.752 35.1964 38.8781C35.4738 38.4006 35.3118 37.7886 34.8344 37.5111Z" fill="#273981"/>
<path d="M52.8105 37.5111C52.3331 37.7886 52.171 38.4006 52.4485 38.8781C54.1092 41.752 54.2747 45.2523 52.8925 48.2701C52.7282 48.5967 52.7553 48.987 52.9631 49.2878C53.1709 49.5886 53.5263 49.7521 53.89 49.714C54.2536 49.6759 54.5675 49.4424 54.7085 49.1051C56.3643 45.4963 56.1664 41.3085 54.1775 37.8721C53.8996 37.395 53.2877 37.2334 52.8105 37.5111Z" fill="#273981"/>
</svg>
