<svg width="58" height="60" viewBox="0 0 58 60" fill="none" xmlns="http://www.w3.org/2000/svg">
<path d="M54.8867 18.9036C56.0551 16.0737 56.0478 12.9343 54.8459 10.7875C53.69 8.35396 51.3579 5.84878 48.6002 4.08052C45.5381 2.11709 42.3602 1.27304 39.6517 1.70486C37.6461 2.02473 35.2608 3.33493 32.9326 5.02572C32.6248 5.01423 32.3118 5.0065 31.9935 5.0065C29.863 5.0065 27.7502 5.26718 25.7033 5.7801C25.1547 5.04014 24.5328 4.3487 23.8402 3.71681C23.4815 3.38955 22.9256 3.41487 22.5983 3.77365C22.2711 4.13233 22.2965 4.68826 22.6552 5.01552C24.4121 6.61864 25.66 8.65098 26.2838 10.9165C25.7545 11.4745 25.2734 12.0082 24.854 12.4995L24.0829 11.7508C23.9846 11.6553 23.8772 11.5725 23.7638 11.5017C22.5494 7.26366 18.6955 4.34038 14.2448 4.34038C8.78402 4.34038 4.34132 8.78355 4.34132 14.2451C4.34132 19.7059 8.78402 24.1486 14.2448 24.1486C15.506 24.1486 16.7427 23.9097 17.8976 23.4516C17.7028 24.5643 17.5795 25.5154 17.5028 26.3002C16.445 26.5857 15.3519 26.7315 14.2446 26.7315C7.35942 26.7315 1.75795 21.13 1.75795 14.2448C1.75819 7.35965 7.35965 1.75819 14.2447 1.75819C16.2615 1.75819 18.1843 2.22329 19.9598 3.14047C20.3911 3.36341 20.9215 3.19427 21.1442 2.76293C21.367 2.33159 21.198 1.8012 20.7666 1.5785C18.7679 0.545858 16.5127 0 14.2447 0C6.39019 0 0 6.39019 0 14.2448C0 19.287 2.6333 23.7253 6.59672 26.2576C6.33123 27.7509 6.19655 29.2771 6.19655 30.8037C6.19655 34.9531 7.19849 39.0476 9.10038 42.7034C7.92813 45.5425 7.9388 48.6935 9.15242 50.8408C10.1859 53.0044 12.1404 55.2248 14.5256 56.9405C17.0878 58.7837 19.8831 59.8698 22.3964 59.9988C22.4117 59.9996 22.427 60 22.4422 60C22.9069 60 23.2953 59.6355 23.3194 59.1659C23.3443 58.681 22.9714 58.2678 22.4865 58.2429C20.3064 58.1309 17.8437 57.1616 15.5522 55.5132C14.8009 54.9728 14.0984 54.3802 13.4635 53.7568C14.0465 53.8551 14.6969 53.8976 15.4212 53.8678C17.844 53.7684 21.0795 52.0021 25.0376 48.6181C28.1778 45.9334 31.0094 42.8862 32.4179 41.3087C32.7317 40.9572 32.7126 40.4208 32.3745 40.0925L30.7595 38.5243C30.7264 38.4923 30.7129 38.4527 30.7194 38.4067C30.7257 38.3613 30.7492 38.3275 30.7888 38.3062C36.2796 35.3602 42.3234 34.2204 44.6681 33.8668C44.7205 33.8587 44.758 33.881 44.78 33.901C44.8099 33.9281 44.824 33.9615 44.8219 34C44.5288 39.5004 42.2955 46.005 41.3485 48.5479C41.3424 48.5644 41.3237 48.6147 41.254 48.6305C41.2064 48.6413 41.1642 48.6296 41.129 48.5952L39.6744 47.1828C39.4963 47.0098 39.2529 46.9207 39.0054 46.9362C38.7575 46.9523 38.528 47.0724 38.3736 47.2669C35.8184 50.4856 29.9833 56.0392 25.5739 57.7367C25.1209 57.9112 24.895 58.4199 25.0694 58.873C25.2438 59.3261 25.7528 59.552 26.2057 59.3775C27.8409 58.7479 29.5442 57.6917 31.0704 56.5821C31.3734 56.5932 31.6811 56.6007 31.9936 56.6007C38.8843 56.6007 45.3624 53.9174 50.2349 49.045C55.1073 44.1726 57.7907 37.6944 57.7907 30.8037C57.7908 26.6541 56.7889 22.5594 54.8867 18.9036ZM53.3007 11.6261L53.3026 11.629C54.0648 12.9754 54.1921 14.9412 53.7072 16.874C51.9448 14.1344 49.6694 11.7375 47.0226 9.83577C47.6023 9.63463 48.1444 9.51648 48.6385 9.49608C50.8799 9.40431 52.448 10.1205 53.3007 11.6261ZM30.6627 6.8016C29.609 7.68281 28.6001 8.60351 27.6805 9.50089C27.4178 8.75495 27.0933 8.03538 26.7117 7.34711C28.0071 7.05678 29.3288 6.87463 30.6627 6.8016ZM24.3129 14.4249C24.4911 14.598 24.7342 14.6874 24.9821 14.6715C25.23 14.6554 25.4595 14.5353 25.614 14.3407C28.8141 10.3086 35.753 4.10701 39.9285 3.44101C42.2106 3.07753 44.9529 3.83027 47.6513 5.56056C48.6953 6.22996 49.6694 7.01095 50.5238 7.85042C49.9408 7.75208 49.291 7.70965 48.5664 7.73942C46.1436 7.83905 42.9081 9.60533 38.9498 12.9895C35.8122 15.672 32.979 18.72 31.5693 20.2981C31.2554 20.6497 31.2744 21.186 31.6126 21.5143L33.228 23.0832C33.2609 23.1152 33.2744 23.1546 33.2679 23.2003C33.2616 23.2455 33.2383 23.2792 33.1984 23.3005C27.7132 26.2446 21.6652 27.3863 19.3197 27.7406C19.2669 27.7485 19.2294 27.7264 19.2074 27.7063C19.1775 27.6793 19.1634 27.6457 19.1654 27.607C19.4573 22.1156 21.6906 15.605 22.6375 13.0605C22.6542 13.0154 22.6865 12.9871 22.7335 12.9766C22.7447 12.9741 22.7557 12.9727 22.7664 12.9727C22.8006 12.9727 22.8313 12.9859 22.8582 13.0119L24.3129 14.4249ZM14.2449 22.3904C9.7536 22.3904 6.09962 18.7364 6.09962 14.2451C6.09962 9.75301 9.7536 6.09856 14.2449 6.09856C17.7061 6.09856 20.7273 8.24824 21.8905 11.4282C21.4788 11.6414 21.1559 12.0007 20.9896 12.4475C19.6954 15.9257 18.8627 18.8825 18.3272 21.295C17.0911 22.0123 15.6876 22.3904 14.2449 22.3904ZM8.23042 27.1558C9.45436 27.7282 10.7722 28.1318 12.1543 28.336C12.0828 28.5072 12.02 28.6768 11.9706 28.8394C11.6619 29.8596 11.5679 30.7979 11.6914 31.6271C11.8974 33.0274 13.1195 34.0556 14.5347 34.0267C16.1865 33.9855 20.2794 34.1313 22.5809 36.3289C22.985 36.7153 23.2001 37.256 23.171 37.8144C23.0646 39.9475 22.3178 45.3115 17.7716 50.1818C15.0359 48.169 12.7348 45.5876 11.0599 42.6296C9.02852 39.0416 7.95474 34.9523 7.95474 30.8035C7.95474 29.5807 8.04757 28.3583 8.23042 27.1558ZM15.3491 52.111C13.1083 52.2035 11.5391 51.4866 10.6871 49.9813C10.6854 49.9785 10.6834 49.9759 10.6818 49.9729C9.92204 48.6266 9.79556 46.6635 10.2799 44.7328C12.0424 47.4727 14.3181 49.8698 16.9651 51.7717C16.3855 51.9727 15.8433 52.0909 15.3491 52.111ZM29.9574 36.7569C29.4199 37.0455 29.0629 37.5578 28.9782 38.1627C28.8946 38.7593 29.1026 39.3659 29.5346 39.7855L30.542 40.7638C27.3086 44.3164 23.4716 47.9501 20.1529 50.1191C24.123 45.1852 24.8202 40.0479 24.9271 37.9037C24.9828 36.8357 24.5704 35.7984 23.7957 35.0577C22.6462 33.96 19.9076 32.1371 14.4934 32.2688C13.9684 32.2803 13.508 31.895 13.4307 31.3697C13.3457 30.7983 13.4207 30.1182 13.6531 29.3498C13.7176 29.1378 13.8487 28.8176 14.0342 28.4871C14.1044 28.4881 14.1744 28.4898 14.2447 28.4898C15.3389 28.4898 16.4216 28.3651 17.4767 28.12C17.5709 28.4575 17.7583 28.7658 18.0258 29.0086C18.378 29.3283 18.8296 29.5007 19.2967 29.5007C19.3914 29.5007 19.4868 29.4936 19.5821 29.4793C22.0181 29.1114 28.3026 27.9238 34.0297 24.8499C34.5674 24.5614 34.9243 24.0489 35.0089 23.4442C35.0936 22.839 34.891 22.2477 34.4527 21.8221L33.4449 20.8434C34.026 20.2053 34.6267 19.5645 35.2402 18.93C35.2942 19.5404 35.5011 20.1414 35.8667 20.6691C36.5123 21.5997 37.1643 22.4489 37.8031 23.1915C38.6056 24.1291 39.867 24.5941 41.0972 24.4056C42.4419 24.1977 44.3977 23.8593 46.0804 23.4274C46.6067 23.2908 47.1683 23.5415 47.4168 24.0247C47.6144 24.4073 47.7649 24.7992 47.8641 25.1897C47.986 25.6698 47.8052 26.167 47.4047 26.4557C46.4021 27.1761 44.0438 28.5342 39.5131 29.5372C37.7916 29.9191 36.6417 31.5836 36.8953 33.3271C36.9209 33.5021 36.9502 33.6778 36.9816 33.8534C34.7499 34.5529 32.3079 35.4958 29.9574 36.7569ZM44.4049 32.1284C43.2296 32.3055 41.1562 32.6746 38.6819 33.3542C38.6664 33.2607 38.6487 33.167 38.6351 33.0738C38.5133 32.2368 39.0662 31.4373 39.8935 31.2539C44.4882 30.2366 47.0722 28.8597 48.4316 27.8828C49.4227 27.1684 49.869 25.9415 49.5682 24.7569C49.4361 24.237 49.2379 23.7191 48.9796 23.2191C48.3489 21.993 46.9749 21.3788 45.6411 21.725C44.0296 22.1387 42.1345 22.4662 40.8296 22.6679C40.1967 22.765 39.5492 22.5275 39.1376 22.0466C38.5369 21.3483 37.9225 20.5475 37.3117 19.6673C36.8136 18.9487 36.8849 17.9663 37.4811 17.3313C40.3126 14.3127 43.5571 12.3623 45.9245 11.2124C48.7889 13.2544 51.193 15.9151 52.9273 18.9778C54.9588 22.5655 56.0326 26.6548 56.0326 30.8035C56.0326 35.6975 54.5612 40.2537 52.0395 44.0556C49.0805 44.0837 46.1514 43.3484 44.9899 43.0174C44.9863 43.0164 44.9826 43.015 44.979 43.0139C45.7379 40.2417 46.4206 37.0411 46.5778 34.0936C46.608 33.5263 46.3832 32.9814 45.9611 32.5985C45.5369 32.2137 44.9692 32.0427 44.4049 32.1284ZM33.8192 54.3976C34.5468 53.7718 35.2715 53.1119 35.9685 52.4427C37.3365 52.6704 38.6796 53.0162 39.984 53.4755C37.8865 54.217 35.6566 54.6756 33.3399 54.8041C33.5051 54.6659 33.6653 54.5299 33.8192 54.3976ZM42.3218 52.5079C40.7604 51.8255 39.1358 51.3013 37.4709 50.9412C38.0719 50.3154 38.6337 49.6977 39.1343 49.1089L39.9043 49.8565C40.3657 50.3047 41.0156 50.4873 41.6425 50.3451C42.2681 50.2034 42.7746 49.7597 42.9967 49.1598C43.3657 48.1693 43.9245 46.5919 44.4933 44.7035C44.4983 44.7051 44.5031 44.7069 44.5083 44.7085C45.5785 45.0134 48.061 45.6416 50.7785 45.7853C48.5149 48.6176 45.6259 50.9292 42.3218 52.5079Z" fill="#273981"/>
<path fill-rule="evenodd" clip-rule="evenodd" d="M14.2919 8.38967C16.1078 8.87518 17.2827 10.6319 17.0378 12.4958C16.7929 14.3596 15.2042 15.7531 13.3244 15.7531L13.2931 19.3711C13.2887 19.8896 12.8671 20.3076 12.3485 20.3076C11.8268 20.3076 11.4039 19.8847 11.4039 19.3629V8.3495H12.5227C12.8722 8.31037 13.7154 8.26362 14.2919 8.38967ZM13.4073 10.0427C13.4315 10.0427 13.4552 10.041 13.479 10.0393C14.5373 10.1218 15.3411 11.0263 15.2997 12.0867C15.2578 13.1472 14.3857 13.9851 13.3244 13.9847L13.2851 10.0337C13.3252 10.0393 13.3663 10.0427 13.4073 10.0427Z" fill="#84B6F3"/>
<path d="M9.97235 17.7875C9.97235 17.3236 10.3484 16.9475 10.8124 16.9475H15.0125C15.4764 16.9475 15.8525 17.3236 15.8525 17.7875C15.8525 18.2515 15.4764 18.6276 15.0125 18.6276H10.8124C10.3484 18.6276 9.97235 18.2515 9.97235 17.7875Z" fill="#84B6F3"/>
</svg>
