<svg width="60" height="60" viewBox="0 0 60 60" fill="none" xmlns="http://www.w3.org/2000/svg">
<path d="M54.1406 15C54.0329 14.9999 53.9262 15.0211 53.8266 15.0623C53.7271 15.1035 53.6366 15.1639 53.5604 15.2401C53.4843 15.3163 53.4238 15.4068 53.3826 15.5063C53.3414 15.6059 53.3203 15.7126 53.3203 15.8203V20.0391C53.3203 20.2566 53.4067 20.4653 53.5606 20.6191C53.7144 20.773 53.9231 20.8594 54.1406 20.8594C54.3582 20.8594 54.5668 20.773 54.7207 20.6191C54.8745 20.4653 54.9609 20.2566 54.9609 20.0391V15.8203C54.961 15.7126 54.9398 15.6059 54.8986 15.5063C54.8574 15.4068 54.797 15.3163 54.7208 15.2401C54.6446 15.1639 54.5542 15.1035 54.4546 15.0623C54.3551 15.0211 54.2484 14.9999 54.1406 15Z" fill="#273981"/>
<path d="M56.9531 2.22656H3.04688C2.93913 2.2265 2.83244 2.24768 2.73288 2.28888C2.63333 2.33008 2.54287 2.3905 2.46669 2.46669C2.3905 2.54287 2.33008 2.63333 2.28888 2.73288C2.24768 2.83244 2.2265 2.93913 2.22656 3.04688V56.9531C2.2265 57.0609 2.24768 57.1676 2.28888 57.2671C2.33008 57.3667 2.3905 57.4571 2.46669 57.5333C2.54287 57.6095 2.63333 57.6699 2.73288 57.7111C2.83244 57.7523 2.93913 57.7735 3.04688 57.7734H56.9531C57.0609 57.7735 57.1676 57.7523 57.2671 57.7111C57.3667 57.6699 57.4571 57.6095 57.5333 57.5333C57.6095 57.4571 57.6699 57.3667 57.7111 57.2671C57.7523 57.1676 57.7735 57.0609 57.7734 56.9531V3.04688C57.7735 2.93913 57.7523 2.83244 57.7111 2.73288C57.6699 2.63333 57.6095 2.54287 57.5333 2.46669C57.4571 2.3905 57.3667 2.33008 57.2671 2.28888C57.1676 2.24768 57.0609 2.2265 56.9531 2.22656ZM3.86719 3.86719H56.1328V10.5197H3.86719V3.86719ZM3.86719 56.1328V12.1603H56.1328V56.1328H3.86719Z" fill="#273981"/>
<path d="M49.6904 4.96875C49.25 4.96875 48.8196 5.09934 48.4534 5.34399C48.0872 5.58865 47.8018 5.93639 47.6333 6.34324C47.4648 6.75009 47.4207 7.19778 47.5066 7.62969C47.5925 8.0616 47.8046 8.45834 48.116 8.76973C48.4274 9.08112 48.8241 9.29318 49.256 9.37909C49.6879 9.465 50.1356 9.42091 50.5425 9.25239C50.9493 9.08386 51.2971 8.79848 51.5417 8.43232C51.7864 8.06617 51.917 7.63568 51.917 7.19531C51.9162 6.60502 51.6814 6.03912 51.264 5.62172C50.8466 5.20432 50.2807 4.96949 49.6904 4.96875ZM49.6904 7.78125C49.5745 7.78125 49.4612 7.74688 49.3649 7.6825C49.2685 7.61812 49.1934 7.52661 49.1491 7.41954C49.1047 7.31247 49.0931 7.19466 49.1157 7.081C49.1383 6.96734 49.1941 6.86294 49.2761 6.78099C49.358 6.69905 49.4624 6.64324 49.5761 6.62063C49.6898 6.59802 49.8076 6.60963 49.9146 6.65398C50.0217 6.69832 50.1132 6.77343 50.1776 6.86978C50.242 6.96614 50.2763 7.07942 50.2763 7.19531C50.2762 7.35067 50.2144 7.49964 50.1046 7.6095C49.9947 7.71935 49.8458 7.78113 49.6904 7.78125Z" fill="#273981"/>
<path d="M42.7793 4.96875C42.3389 4.96875 41.9084 5.09934 41.5423 5.34399C41.1761 5.58865 40.8907 5.93639 40.7222 6.34324C40.5537 6.75009 40.5096 7.19778 40.5955 7.62969C40.6814 8.0616 40.8935 8.45834 41.2049 8.76973C41.5162 9.08112 41.913 9.29318 42.3449 9.37909C42.7768 9.465 43.2245 9.42091 43.6313 9.25239C44.0382 9.08386 44.3859 8.79848 44.6306 8.43232C44.8752 8.06617 45.0058 7.63568 45.0058 7.19531C45.0051 6.60502 44.7703 6.03912 44.3529 5.62172C43.9355 5.20432 43.3696 4.96949 42.7793 4.96875ZM42.7793 7.78125C42.6634 7.78125 42.5501 7.74688 42.4537 7.6825C42.3574 7.61812 42.2823 7.52661 42.2379 7.41954C42.1936 7.31247 42.182 7.19466 42.2046 7.081C42.2272 6.96734 42.283 6.86294 42.3649 6.78099C42.4469 6.69905 42.5513 6.64324 42.665 6.62063C42.7786 6.59802 42.8964 6.60963 43.0035 6.65398C43.1106 6.69832 43.2021 6.77343 43.2665 6.86978C43.3308 6.96614 43.3652 7.07942 43.3652 7.19531C43.3651 7.35067 43.3033 7.49964 43.1935 7.6095C43.0836 7.71935 42.9346 7.78113 42.7793 7.78125Z" fill="#273981"/>
<path d="M35.8681 4.96875C35.4277 4.96875 34.9972 5.09934 34.6311 5.34399C34.2649 5.58865 33.9795 5.93639 33.811 6.34324C33.6425 6.75009 33.5984 7.19778 33.6843 7.62969C33.7702 8.0616 33.9823 8.45834 34.2937 8.76973C34.605 9.08112 35.0018 9.29318 35.4337 9.37909C35.8656 9.465 36.3133 9.42091 36.7202 9.25239C37.127 9.08386 37.4747 8.79848 37.7194 8.43232C37.9641 8.06617 38.0947 7.63568 38.0947 7.19531C38.094 6.60498 37.8592 6.03901 37.4418 5.62158C37.0244 5.20415 36.4584 4.96937 35.8681 4.96875ZM35.8681 7.78125C35.7522 7.78125 35.6389 7.74688 35.5426 7.6825C35.4462 7.61812 35.3711 7.52661 35.3267 7.41954C35.2824 7.31247 35.2708 7.19466 35.2934 7.081C35.316 6.96734 35.3718 6.86294 35.4538 6.78099C35.5357 6.69905 35.6401 6.64324 35.7538 6.62063C35.8674 6.59802 35.9852 6.60963 36.0923 6.65398C36.1994 6.69832 36.2909 6.77343 36.3553 6.86978C36.4197 6.96614 36.454 7.07942 36.454 7.19531C36.4539 7.35067 36.3921 7.49964 36.2823 7.6095C36.1724 7.71935 36.0234 7.78113 35.8681 7.78125Z" fill="#273981"/>
<path d="M48.66 16.6143H11.34C11.1225 16.6144 10.9139 16.7008 10.7601 16.8547C10.6063 17.0085 10.5198 17.217 10.5197 17.4346V28.6846C10.5197 28.9021 10.6061 29.1108 10.7599 29.2646C10.9138 29.4185 11.1224 29.5049 11.34 29.5049H48.66C48.8776 29.5049 49.0862 29.4185 49.2401 29.2646C49.3939 29.1108 49.4803 28.9021 49.4803 28.6846V17.4346C49.4802 17.217 49.3937 17.0085 49.2399 16.8547C49.0861 16.7008 48.8775 16.6144 48.66 16.6143ZM47.8397 27.8643H12.1603V18.2549H47.8397V27.8643Z" fill="#84B6F3"/>
<path d="M48.66 37.9307H11.34C11.1224 37.9307 10.9138 38.0171 10.7599 38.1709C10.6061 38.3248 10.5197 38.5334 10.5197 38.751C10.5197 38.9685 10.6061 39.1772 10.7599 39.331C10.9138 39.4849 11.1224 39.5713 11.34 39.5713H48.66C48.8776 39.5713 49.0862 39.4849 49.2401 39.331C49.3939 39.1772 49.4803 38.9685 49.4803 38.751C49.4803 38.5334 49.3939 38.3248 49.2401 38.1709C49.0862 38.0171 48.8776 37.9307 48.66 37.9307Z" fill="#273981"/>
<path d="M48.66 41.7324H11.34C11.1224 41.7324 10.9138 41.8188 10.7599 41.9727C10.6061 42.1265 10.5197 42.3352 10.5197 42.5527C10.5197 42.7703 10.6061 42.9789 10.7599 43.1328C10.9138 43.2866 11.1224 43.373 11.34 43.373H48.66C48.8776 43.373 49.0862 43.2866 49.2401 43.1328C49.3939 42.9789 49.4803 42.7703 49.4803 42.5527C49.4803 42.3352 49.3939 42.1265 49.2401 41.9727C49.0862 41.8188 48.8776 41.7324 48.66 41.7324Z" fill="#273981"/>
<path d="M48.66 34.1292H11.34C11.1224 34.1292 10.9138 34.2156 10.7599 34.3694C10.6061 34.5233 10.5197 34.7319 10.5197 34.9495C10.5197 35.167 10.6061 35.3757 10.7599 35.5295C10.9138 35.6834 11.1224 35.7698 11.34 35.7698H48.66C48.8776 35.7698 49.0862 35.6834 49.2401 35.5295C49.3939 35.3757 49.4803 35.167 49.4803 34.9495C49.4803 34.7319 49.3939 34.5233 49.2401 34.3694C49.0862 34.2156 48.8776 34.1292 48.66 34.1292Z" fill="#273981"/>
<path d="M48.66 45.5349H11.34C11.1224 45.5349 10.9138 45.6213 10.7599 45.7752C10.6061 45.929 10.5197 46.1377 10.5197 46.3552C10.5197 46.5728 10.6061 46.7814 10.7599 46.9353C10.9138 47.0891 11.1224 47.1755 11.34 47.1755H48.66C48.8776 47.1755 49.0862 47.0891 49.2401 46.9353C49.3939 46.7814 49.4803 46.5728 49.4803 46.3552C49.4803 46.1377 49.3939 45.929 49.2401 45.7752C49.0862 45.6213 48.8776 45.5349 48.66 45.5349Z" fill="#273981"/>
<path d="M48.66 49.3364H11.34C11.1224 49.3364 10.9138 49.4229 10.7599 49.5767C10.6061 49.7305 10.5197 49.9392 10.5197 50.1567C10.5197 50.3743 10.6061 50.5829 10.7599 50.7368C10.9138 50.8906 11.1224 50.9771 11.34 50.9771H48.66C48.8776 50.9771 49.0862 50.8906 49.2401 50.7368C49.3939 50.5829 49.4803 50.3743 49.4803 50.1567C49.4803 49.9392 49.3939 49.7305 49.2401 49.5767C49.0862 49.4229 48.8776 49.3364 48.66 49.3364Z" fill="#273981"/>
<path d="M21.7326 25.1194L22.5051 22.53L23.2701 25.1194H24.3145L25.7165 21H24.577L23.796 23.5659L22.9837 21H22.0195L21.2067 23.5659L20.4257 21H19.2862L20.6887 25.1194H21.7326Z" fill="#84B6F3"/>
<path d="M29.2312 25.1194L30.0037 22.53L30.7687 25.1194H31.8131L33.2151 21H32.0756L31.2947 23.5659L30.4823 21H29.5181L28.7053 23.5659L27.9244 21H26.7848L28.1873 25.1194H29.2312Z" fill="#84B6F3"/>
<path d="M36.7301 25.1194L37.5026 22.53L38.2676 25.1194H39.312L40.714 21H39.5745L38.7936 23.5659L37.9812 21H37.017L36.2042 23.5659L35.4233 21H34.2837L35.6862 25.1194H36.7301Z" fill="#84B6F3"/>
</svg>
