<svg width="61" height="60" viewBox="0 0 61 60" fill="none" xmlns="http://www.w3.org/2000/svg">
<path d="M59.5393 36.015C60.338 32.0461 60.338 27.9549 59.5393 23.986C59.5358 23.9638 59.5308 23.9421 59.5258 23.9204C58.1429 17.1624 54.5 11.0935 49.2111 6.73628C43.9222 2.37907 37.3105 0 30.4904 0C23.6703 0 17.0586 2.37907 11.7697 6.73628C6.48076 11.0935 2.83787 17.1624 1.45495 23.9204C1.44996 23.9416 1.44497 23.9633 1.44148 23.9855C0.642797 27.9544 0.642797 32.0456 1.44148 36.0145C1.44497 36.0367 1.44996 36.0584 1.45495 36.0796C2.83787 42.8376 6.48076 48.9065 11.7697 53.2637C17.0586 57.6209 23.6703 60 30.4904 60C37.3105 60 43.9222 57.6209 49.2111 53.2637C54.5 48.9065 58.1429 42.8376 59.5258 36.0796C59.5308 36.0569 59.5358 36.0372 59.5393 36.015ZM29.6176 58.2132C23.6717 58.031 17.941 55.9202 13.2706 52.1922C17.947 49.8832 23.6698 48.574 29.6176 48.4574V58.2132ZM31.3632 48.4574C37.311 48.5745 43.0343 49.8837 47.7102 52.1922C43.0398 55.9202 37.3091 58.031 31.3632 58.2132V48.4574ZM30.4904 41.4506C28.2524 41.4506 26.0647 40.7791 24.2039 39.5209C22.3431 38.2628 20.8927 36.4745 20.0363 34.3823C19.1799 32.29 18.9558 29.9878 19.3924 27.7667C19.829 25.5456 20.9067 23.5054 22.4892 21.904C24.0717 20.3027 26.0879 19.2122 28.2829 18.7704C30.4778 18.3286 32.753 18.5553 34.8206 19.422C36.8882 20.2886 38.6555 21.7562 39.8988 23.6392C41.1422 25.5221 41.8058 27.7359 41.8058 30.0005C41.8025 33.0362 40.6093 35.9467 38.488 38.0933C36.3666 40.2399 33.4904 41.4473 30.4904 41.4506ZM2.58814 30.0005C2.59019 28.3292 2.73873 26.6613 3.03204 25.0166H18.3969C17.1066 28.2109 17.1066 31.7901 18.3969 34.9844H3.03204C2.73873 33.3397 2.59019 31.6718 2.58814 30.0005ZM31.3632 1.78779C37.3091 1.97005 43.0398 4.08082 47.7102 7.80886C43.0338 10.1179 37.311 11.427 31.3632 11.5436V1.78779ZM29.6176 11.5436C23.6698 11.4265 17.9465 10.1174 13.2706 7.80886C17.941 4.08082 23.6717 1.97005 29.6176 1.78779V11.5436ZM42.5854 25.0161H57.9503C58.5421 28.3117 58.5421 31.6883 57.9503 34.9839H42.5839C43.8742 31.7896 43.8742 28.2104 42.5839 25.0161H42.5854ZM57.5827 23.2496H41.7126C40.6307 21.4099 39.1238 19.8634 37.3211 18.7429C35.5185 17.6224 33.474 16.9614 31.3632 16.8167V13.3106C37.8671 13.1869 44.1315 11.686 49.1656 9.04285C53.3102 12.8217 56.2414 17.7701 57.5812 23.2501L57.5827 23.2496ZM11.8152 9.04285C16.8527 11.686 23.1137 13.1869 29.6176 13.3106V16.8167C27.5068 16.9615 25.4622 17.6226 23.6596 18.7431C21.8569 19.8637 20.35 21.4103 19.2682 23.2501H3.39962C4.73944 17.7701 7.67059 12.8217 11.8152 9.04285ZM3.39962 36.7509H19.2682C20.35 38.5907 21.8569 40.1373 23.6596 41.2579C25.4622 42.3784 27.5068 43.0395 29.6176 43.1843V46.6904C23.1137 46.8141 16.8492 48.3151 11.8152 50.9582C7.67059 47.1793 4.73944 42.2309 3.39962 36.7509ZM49.1656 50.9582C44.1281 48.3151 37.8671 46.8141 31.3632 46.6904V43.1843C33.474 43.0395 35.5186 42.3784 37.3212 41.2579C39.1239 40.1373 40.6308 38.5907 41.7126 36.7509H57.5807C56.241 42.2309 53.31 47.1793 49.1656 50.9582Z" fill="#273981"/>
<path d="M30.4904 20.7075C28.8551 20.709 27.2872 21.3665 26.1304 22.536C24.9736 23.7055 24.3222 25.2914 24.3192 26.9461C24.2868 32.3277 29.5991 38.7132 29.8255 38.9842C29.9075 39.0817 30.0093 39.16 30.1241 39.2137C30.2389 39.2674 30.3639 39.2952 30.4904 39.2952C30.6168 39.2952 30.7418 39.2674 30.8566 39.2137C30.9714 39.16 31.0733 39.0817 31.1552 38.9842C31.3817 38.7147 36.6915 32.3293 36.6616 26.9532C36.66 25.2974 36.0093 23.7099 34.8524 22.539C33.6954 21.368 32.1267 20.7094 30.4904 20.7075ZM30.4904 36.9871C29.1058 35.1409 26.0434 30.638 26.0653 26.9517C26.0661 25.764 26.533 24.6252 27.3635 23.7859C28.194 22.9466 29.3199 22.4755 30.4936 22.4762C31.6673 22.477 32.7927 22.9495 33.6221 23.7898C34.4515 24.6302 34.9171 25.7695 34.9164 26.9572C34.9378 30.633 31.8744 35.1394 30.4904 36.9871Z" fill="#84B6F3"/>
<path d="M30.4902 24.1819C29.9488 24.1818 29.4194 24.3442 28.9691 24.6485C28.5188 24.9529 28.1679 25.3855 27.9606 25.8917C27.7533 26.3979 27.699 26.9549 27.8046 27.4923C27.9102 28.0297 28.1709 28.5234 28.5537 28.9109C28.9366 29.2984 29.4244 29.5623 29.9555 29.6692C30.4865 29.7761 31.037 29.7213 31.5373 29.5116C32.0376 29.302 32.4652 28.9469 32.766 28.4913C33.0669 28.0357 33.2275 27.5001 33.2275 26.9522C33.226 26.218 32.9372 25.5143 32.4242 24.9951C31.9112 24.4759 31.2158 24.1835 30.4902 24.1819ZM30.4902 27.9555C30.294 27.9556 30.1021 27.8968 29.9389 27.7866C29.7757 27.6763 29.6485 27.5195 29.5733 27.3361C29.4982 27.1526 29.4785 26.9507 29.5167 26.756C29.555 26.5612 29.6495 26.3823 29.7883 26.2418C29.927 26.1014 30.1038 26.0058 30.2963 25.9671C30.4888 25.9284 30.6883 25.9483 30.8696 26.0243C31.0509 26.1004 31.2058 26.2291 31.3148 26.3943C31.4238 26.5594 31.4819 26.7536 31.4818 26.9522C31.4816 27.2182 31.3771 27.4734 31.1912 27.6615C31.0053 27.8496 30.7532 27.9554 30.4902 27.9555Z" fill="#84B6F3"/>
</svg>
