<svg width="31" height="30" viewBox="0 0 31 30" fill="none" xmlns="http://www.w3.org/2000/svg">
<g clip-path="url(#clip0)">
<path d="M15.3 30C11.2132 30 7.37101 28.4398 4.48123 25.6066C1.59144 22.7735 0 19.0066 0 15C0 10.9934 1.5915 7.22654 4.48123 4.39336C7.37095 1.56018 11.2132 0 15.3 0C19.3868 0 23.229 1.56023 26.1188 4.39336C29.0086 7.22648 30.6 10.9934 30.6 15C30.6 19.0066 29.0085 22.7735 26.1188 25.6066C23.229 28.4398 19.3868 30 15.3 30ZM15.3 1.875C7.91811 1.875 1.9125 7.76285 1.9125 15C1.9125 22.2371 7.91811 28.125 15.3 28.125C22.6819 28.125 28.6875 22.2371 28.6875 15C28.6875 7.76285 22.6819 1.875 15.3 1.875Z" fill="#273981"/>
<path d="M19.125 21.0938H17.2125C15.0166 21.0938 13.0829 19.9715 11.9769 18.2812H16.2563C16.7844 18.2812 17.2125 17.8615 17.2125 17.3438C17.2125 16.826 16.7844 16.4062 16.2563 16.4062H11.1642C11.055 15.9547 10.9969 15.4839 10.9969 15C10.9969 14.5161 11.0551 14.0453 11.1642 13.5938H16.2563C16.7844 13.5938 17.2125 13.174 17.2125 12.6562C17.2125 12.1385 16.7844 11.7188 16.2563 11.7188H11.9769C13.0829 10.0285 15.0166 8.90625 17.2125 8.90625H18.6469C19.175 8.90625 19.6032 8.48648 19.6032 7.96875C19.6032 7.45102 19.175 7.03125 18.6469 7.03125H17.2125C13.9231 7.03125 11.0839 8.95693 9.80583 11.7188H8.60627C8.07813 11.7188 7.65002 12.1385 7.65002 12.6562C7.65002 13.174 8.07813 13.5938 8.60627 13.5938H9.21116C9.12791 14.0504 9.0844 14.5203 9.0844 15C9.0844 15.4797 9.12791 15.9496 9.21116 16.4062H8.60627C8.07813 16.4062 7.65002 16.826 7.65002 17.3438C7.65002 17.8615 8.07813 18.2812 8.60627 18.2812H9.80583C11.0838 21.0431 13.9231 22.9688 17.2125 22.9688H19.125C19.6532 22.9688 20.0813 22.549 20.0813 22.0312C20.0813 21.5135 19.6532 21.0938 19.125 21.0938Z" fill="#273981"/>
</g>
<defs>
<clipPath id="clip0">
<rect width="30.6" height="30" fill="white"/>
</clipPath>
</defs>
</svg>
