<svg width="260" height="55" viewBox="0 0 260 55" fill="none" xmlns="http://www.w3.org/2000/svg">
<path fill-rule="evenodd" clip-rule="evenodd" d="M0 12.9937L26.447 40.3456H260L233.553 12.9937H0Z" fill="#273981"/>
<path d="M55.9259 17.2285H51.4539L47.7359 23.1825L44.0439 17.2285H39.3119L45.3439 26.0685L38.8179 35.7405H43.4459L47.5539 29.3185L51.6099 35.7405H56.4719L49.9719 26.0685L55.9259 17.2285Z" fill="white"/>
<path d="M73.8137 17.2285H69.2377L62.2697 30.0465H62.1917V17.2285H58.1357V35.7405H62.7117L69.6797 22.8965H69.7577V35.7405H73.8137V17.2285Z" fill="white"/>
<path d="M77.4072 35.7405H81.2812V22.7145L85.8831 35.7405H89.0291L93.5791 22.5845V35.7405H97.4011V17.2285H91.7331L87.5211 29.9425L83.2052 17.2285H77.4072V35.7405Z" fill="white"/>
<path d="M159.438 23.8841V20.5821H169.136V17.2281H155.408V35.7402H164.066C168.07 35.7402 170.852 33.8681 170.852 29.7861C170.852 25.7561 167.992 23.8841 164.274 23.8841H159.438ZM166.9 29.7341C166.9 31.7101 165.704 32.4121 163.754 32.4121H159.438V27.0821H163.728C165.548 27.0821 166.9 27.7841 166.9 29.7341Z" fill="white"/>
<path d="M182.867 17.2021H178.681L171.635 35.7402H175.795L177.303 31.6061H184.193L185.649 35.7402H189.913L182.867 17.2021ZM183.205 28.6421H178.291L180.761 21.7521L183.205 28.6421Z" fill="white"/>
<path d="M207.14 17.2281H203.084V24.1961H195.518V17.2281H191.462V35.7402H195.518V27.7582H203.084V35.7402H207.14V17.2281Z" fill="white"/>
<path d="M227.191 17.2281H222.069L214.789 24.9241V17.2281H210.785V35.7402H214.789V29.7601L217.155 27.4201L222.771 35.7402H227.867L219.937 24.5341L227.191 17.2281Z" fill="white"/>
<path fill-rule="evenodd" clip-rule="evenodd" d="M136.404 32.3502C137.978 32.3502 139.254 33.6344 139.254 35.2166C139.254 36.8009 137.978 38.0847 136.404 38.0847C135.152 38.0847 134.087 37.2694 133.705 36.138H125.856H117.834C117.395 37.151 116.389 37.8594 115.22 37.8594C113.647 37.8594 112.373 36.5762 112.373 34.9913C112.373 33.4091 113.647 32.1255 115.22 32.1255C115.435 32.1255 115.644 32.1501 115.845 32.1951L119.719 25.444L123.752 18.4162C123.297 17.9079 123.019 17.2347 123.019 16.4984C123.019 14.9149 124.295 13.6299 125.869 13.6299C127.441 13.6299 128.719 14.9149 128.719 16.4984C128.719 17.244 128.436 17.9245 127.971 18.4353L131.993 25.444L135.975 32.3822C136.115 32.3609 136.258 32.3502 136.404 32.3502ZM117.213 32.9411C117.652 33.3725 117.953 33.9458 118.043 34.5869H125.856H133.623C133.761 33.9727 134.094 33.4324 134.553 33.0369L130.65 26.2324L126.647 19.2584C126.4 19.3289 126.138 19.3656 125.869 19.3656C125.59 19.3656 125.323 19.3258 125.069 19.251L121.062 26.2324L117.213 32.9411Z" fill="#273981"/>
<path fill-rule="evenodd" clip-rule="evenodd" d="M126.051 2.39893L137.156 8.84974L148.261 15.3004V28.2023V41.1038L137.156 47.5546L126.051 54.0053L114.946 47.5546L103.841 41.1038V28.2023V15.3004L114.946 8.84974L126.051 2.39893Z" fill="white"/>
<path fill-rule="evenodd" clip-rule="evenodd" d="M136.404 32.3502C137.978 32.3502 139.254 33.6344 139.254 35.2166C139.254 36.8009 137.978 38.0847 136.404 38.0847C135.152 38.0847 134.087 37.2694 133.705 36.138H125.856H117.834C117.395 37.151 116.389 37.8594 115.22 37.8594C113.647 37.8594 112.373 36.5762 112.373 34.9913C112.373 33.4091 113.647 32.1255 115.22 32.1255C115.435 32.1255 115.644 32.1501 115.845 32.1951L119.719 25.444L123.752 18.4162C123.297 17.9079 123.019 17.2347 123.019 16.4984C123.019 14.9149 124.295 13.6299 125.869 13.6299C127.441 13.6299 128.719 14.9149 128.719 16.4984C128.719 17.244 128.436 17.9245 127.971 18.4353L131.993 25.444L135.975 32.3822C136.115 32.3609 136.258 32.3502 136.404 32.3502ZM117.213 32.9411C117.652 33.3725 117.953 33.9458 118.043 34.5869H125.856H133.623C133.761 33.9727 134.094 33.4324 134.553 33.0369L130.65 26.2324L126.647 19.2584C126.4 19.3289 126.138 19.3656 125.869 19.3656C125.59 19.3656 125.323 19.3258 125.069 19.251L121.062 26.2324L117.213 32.9411Z" fill="#273981"/>
<path fill-rule="evenodd" clip-rule="evenodd" d="M126.066 0L137.619 6.71161L149.173 13.4229V26.8453V40.2679L137.619 46.9792L126.066 53.6904L114.512 46.9792L102.959 40.2679V26.8453V13.4229L114.512 6.71161L126.066 0Z" fill="#273981"/>
<path fill-rule="evenodd" clip-rule="evenodd" d="M126.081 0.581055L137.386 7.14811L148.692 13.7152V26.8497V39.9841L137.386 46.5511L126.081 53.1182L114.776 46.5511L103.471 39.9841V26.8497V13.7152L114.776 7.14811L126.081 0.581055Z" fill="#273981"/>
<path fill-rule="evenodd" clip-rule="evenodd" d="M126.051 1.05176L137.156 7.50257L148.261 13.9532V26.8551V39.7566L137.156 46.2074L126.051 52.6581L114.946 46.2074L103.841 39.7566V26.8551V13.9532L114.946 7.50257L126.051 1.05176Z" fill="white"/>
<path fill-rule="evenodd" clip-rule="evenodd" d="M106.999 37.8078L124.993 48.2063L125.77 46.8465L108.517 36.8763V16.2651H106.984V37.773H107.019L106.999 37.8078Z" fill="#273981"/>
<path fill-rule="evenodd" clip-rule="evenodd" d="M144.752 15.8585L126.758 5.45996L125.981 6.81976L143.234 16.7898V37.4011H144.767V15.8931H144.732L144.752 15.8585Z" fill="#273981"/>
<path fill-rule="evenodd" clip-rule="evenodd" d="M136.404 31.003C137.978 31.003 139.254 32.2872 139.254 33.8694C139.254 35.4537 137.978 36.7375 136.404 36.7375C135.152 36.7375 134.087 35.9223 133.705 34.7909H125.856H117.834C117.395 35.8038 116.389 36.5123 115.22 36.5123C113.647 36.5123 112.373 35.229 112.373 33.6441C112.373 32.062 113.647 30.7783 115.22 30.7783C115.435 30.7783 115.644 30.803 115.845 30.848L119.719 24.0968L123.752 17.069C123.297 16.5607 123.019 15.8876 123.019 15.1512C123.019 13.5677 124.295 12.2827 125.869 12.2827C127.441 12.2827 128.719 13.5677 128.719 15.1512C128.719 15.8969 128.436 16.5774 127.971 17.0882L131.993 24.0968L135.975 31.035C136.115 31.0137 136.258 31.003 136.404 31.003ZM117.213 31.594C117.652 32.0253 117.953 32.5986 118.043 33.2397H125.856H133.623C133.761 32.6256 134.094 32.0852 134.553 31.6897L130.65 24.8852L126.647 17.9112C126.4 17.9818 126.138 18.0184 125.869 18.0184C125.59 18.0184 125.323 17.9786 125.069 17.9038L121.062 24.8852L117.213 31.594Z" fill="#273981"/>
<path d="M46.5609 0.215301H44.5598L40.5704 4.30602V0.215301H39V9.23261H40.5704V6.20573L41.8622 4.91393L44.8258 9.23261H46.7888L42.9514 3.81209L46.5609 0.215301Z" fill="#333333"/>
<path d="M49.7849 6.69966L49.7723 6.72499C49.3037 7.59885 48.9871 8.11811 48.4045 8.11811C47.8472 8.11811 47.5559 7.99146 47.3913 7.89014V9.21994C47.6446 9.33393 48.0499 9.44791 48.4551 9.44791C49.4556 9.44791 50.2662 8.94132 51.0261 7.39622L54.5342 0.215301H52.8245L50.5955 5.05324L48.4171 0.215301H46.6694L49.7849 6.69966Z" fill="#333333"/>
<path d="M61.7906 6.62367C61.7906 5.47118 61.0814 4.62264 60.0809 4.42V4.38201C60.7774 4.2047 61.5247 3.39415 61.5247 2.4443C61.5247 0.747221 60.0556 0 58.2698 0C56.4334 0 54.977 0.823209 54.901 2.83691H56.4081C56.5094 1.70974 57.2566 1.25381 58.3711 1.25381C59.3843 1.25381 59.9669 1.72241 59.9669 2.52029C59.9669 3.36883 59.3337 3.92607 58.5231 3.92607H57.4213V5.15456H58.5231C59.549 5.15456 60.2075 5.63582 60.2075 6.59834C60.2075 7.62418 59.5743 8.18143 58.4345 8.18143C57.1553 8.18143 56.1042 7.63685 56.1042 6.24372H54.5464C54.5464 8.42206 56.2055 9.43524 58.3458 9.43524C60.8788 9.43524 61.7906 7.73817 61.7906 6.62367Z" fill="#333333"/>
<path d="M70.6742 6.4337C70.6742 4.66063 69.5723 3.66011 67.5966 3.66011H64.899V1.58309H69.9523V0.215301H63.3159V9.23261H67.5966C69.5597 9.23261 70.6742 8.21943 70.6742 6.4337ZM69.0911 6.47169C69.0911 7.44688 68.5718 7.9408 67.5333 7.9408H64.899V4.95192H67.508C68.4958 4.95192 69.0911 5.52183 69.0911 6.47169Z" fill="#333333"/>
<path d="M76.3366 0.202636H74.6522L71.1694 9.23261H72.8031L73.6897 6.83897H77.2611L78.1223 9.23261H79.8194L76.3366 0.202636ZM76.8432 5.64848H74.0949L75.5007 1.84905L76.8432 5.64848Z" fill="#333333"/>
<path d="M88.3933 5.80046H86.8102C86.6456 7.13026 85.9744 8.10544 84.5053 8.10544C82.5802 8.10544 81.8457 6.3957 81.8457 4.72395C81.8457 3.06487 82.6182 1.35513 84.5179 1.35513C85.6831 1.35513 86.5316 2.00103 86.7469 3.0902H88.3173C88.0134 1.00052 86.3417 0.0126646 84.5433 0.0126646C81.8077 0.0126646 80.2499 2.16567 80.2499 4.72395C80.2499 7.57352 81.9217 9.44791 84.4673 9.44791C86.7216 9.44791 88.2287 7.99146 88.3933 5.80046Z" fill="#333333"/>
<path d="M97.5332 5.80046H95.9501C95.7855 7.13026 95.1143 8.10544 93.6452 8.10544C91.7201 8.10544 90.9856 6.3957 90.9856 4.72395C90.9856 3.06487 91.7581 1.35513 93.6578 1.35513C94.823 1.35513 95.6715 2.00103 95.8868 3.0902H97.4572C97.1533 1.00052 95.4815 0.0126646 93.6832 0.0126646C90.9476 0.0126646 89.3898 2.16567 89.3898 4.72395C89.3898 7.57352 91.0615 9.44791 93.6072 9.44791C95.8615 9.44791 97.3686 7.99146 97.5332 5.80046Z" fill="#333333"/>
</svg>
