<svg width="391" height="316" viewBox="0 0 391 316" fill="none" xmlns="http://www.w3.org/2000/svg">
<path opacity="0.05" fill-rule="evenodd" clip-rule="evenodd" d="M318.375 95.5896C334.855 79.11 361.646 79.175 378.189 95.7188C394.756 112.285 394.817 139.072 378.337 155.551C365.225 168.664 345.554 171.286 329.722 163.457L247.532 245.647L163.543 329.636C169.531 344.833 166.41 362.768 154.173 375.005C137.694 391.484 110.936 391.407 94.3634 374.834C77.8196 358.29 77.7376 331.528 94.2172 315.049C96.4588 312.807 98.9094 310.871 101.482 309.24L71.4531 198.083L40.1938 82.3719C30.1205 81.8145 20.1687 77.6894 12.4695 69.9902C-4.08861 53.4321 -4.16654 26.6372 12.3131 10.1576C28.7785 -6.3078 55.5976 -6.25408 72.1557 10.304C79.9521 18.1004 84.1018 28.1821 84.5726 38.3935L199.973 69.5637L314.211 100.423C315.457 98.7312 316.844 97.121 318.375 95.5896ZM123.608 302.715C132.712 302.631 141.866 305.467 149.512 311.228L231.313 229.428L312.644 148.097C307.662 140.234 305.5 131.096 306.177 122.148L194.158 91.8665L79.3117 60.866C77.465 64.1885 75.1086 67.3114 72.2877 70.1322C69.3744 73.0456 66.1559 75.4319 62.7165 77.3069L93.7573 192.267L123.608 302.715Z" fill="#273981"/>
</svg>
