<svg width="30" height="30" viewBox="0 0 30 30" fill="none" xmlns="http://www.w3.org/2000/svg">
<path d="M16.8828 7.53125H12.1758C11.6904 7.53125 11.2969 7.92477 11.2969 8.41016V15.0625H10.293C9.80758 15.0625 9.41406 15.456 9.41406 15.9414C9.41406 16.4268 9.80758 16.8203 10.293 16.8203H11.2969V18.8281H10.293C9.80758 18.8281 9.41406 19.2216 9.41406 19.707C9.41406 20.1924 9.80758 20.5859 10.293 20.5859H11.2969V22.5312C11.2969 23.0166 11.6904 23.4102 12.1758 23.4102C12.6611 23.4102 13.0547 23.0166 13.0547 22.5312V20.5859H16.8828C17.3682 20.5859 17.7617 20.1924 17.7617 19.707C17.7617 19.2216 17.3682 18.8281 16.8828 18.8281H13.0547V16.8203H16.8828C19.4438 16.8203 21.5274 14.7368 21.5274 12.1757C21.5273 9.55144 19.3896 7.53125 16.8828 7.53125ZM16.8828 15.0625H13.0547V9.28906H16.8828C18.465 9.28906 19.7696 10.5652 19.7696 12.1758C19.7695 13.7676 18.4746 15.0625 16.8828 15.0625Z" fill="#273981"/>
<path d="M15 0C6.72896 0 0 6.72896 0 15C0 23.271 6.72896 30 15 30C23.271 30 30 23.271 30 15C30 6.72896 23.271 0 15 0ZM15 28.2422C7.69822 28.2422 1.75781 22.3018 1.75781 15C1.75781 7.69822 7.69822 1.75781 15 1.75781C22.3018 1.75781 28.2422 7.69822 28.2422 15C28.2422 22.3018 22.3018 28.2422 15 28.2422Z" fill="#273981"/>
</svg>
