<svg width="24" height="22" viewBox="0 0 24 22" fill="none" xmlns="http://www.w3.org/2000/svg">
<path fill-rule="evenodd" clip-rule="evenodd" d="M21.4554 16.7135C22.8606 16.7135 24 17.86 24 19.2726C24 20.6871 22.8606 21.8332 21.4554 21.8332C20.3374 21.8332 19.3869 21.1054 19.0458 20.0953H12.0377H4.87626C4.48368 20.9997 3.58602 21.6321 2.54261 21.6321C1.13745 21.6321 0 20.4865 0 19.0715C0 17.6589 1.13745 16.5129 2.54261 16.5129C2.73375 16.5129 2.92076 16.5349 3.1 16.575L6.55871 10.5476L10.1592 4.27321C9.75349 3.81937 9.50508 3.2184 9.50508 2.56102C9.50508 1.14724 10.6441 0 12.0493 0C13.4532 0 14.5943 1.14724 14.5943 2.56102C14.5943 3.22671 14.3414 3.83427 13.9261 4.29031L17.5171 10.5476L21.0718 16.7421C21.1971 16.723 21.3249 16.7135 21.4554 16.7135ZM4.32143 17.2411C4.71316 17.6262 4.98256 18.138 5.0629 18.7104H12.0377H18.9725C19.0953 18.1621 19.3928 17.6797 19.8031 17.3266L16.3184 11.2515L12.7438 5.0251C12.5234 5.0881 12.2898 5.12082 12.0493 5.12082C11.8009 5.12082 11.5619 5.08529 11.3353 5.01851L7.75757 11.2515L4.32143 17.2411Z" fill="#273981"/>
</svg>
